<svg width="491" height="986" viewBox="0 0 491 986" fill="none" xmlns="http://www.w3.org/2000/svg">
<rect width="491" height="986" fill="#F7F7F7"/>
<rect width="491" height="986" fill="url(#paint0_linear)"/>
<path d="M25.2482 4.45215L24.3291 5.03788L24.6022 6.09293L23.7611 5.39989L22.8421 5.98562L23.2413 4.97156L22.4003 4.27852L23.4881 4.34484L23.8873 3.33078L24.1604 4.38583L25.2482 4.45215Z" fill="#DDDDDD"/>
<path d="M17.0081 18.1354L16.4436 19.0676L17.1558 19.8926L16.0947 19.6438L15.5303 20.576L15.439 19.4901L14.3779 19.2413L15.3826 18.8189L15.2913 17.7329L16.0034 18.5578L17.0081 18.1354Z" fill="#DDDDDD"/>
<path d="M51.1072 1.66007L50.9535 2.73899L51.9322 3.21856L50.8585 3.4058L50.7049 4.48473L50.195 3.52153L49.1214 3.70877L49.8799 2.92624L49.3701 1.96303L50.3487 2.4426L51.1072 1.66007Z" fill="#DDDDDD"/>
<path d="M103.107 16.6601L102.954 17.739L103.932 18.2186L102.859 18.4058L102.705 19.4847L102.195 18.5215L101.121 18.7088L101.88 17.9262L101.37 16.963L102.349 17.4426L103.107 16.6601Z" fill="#DDDDDD"/>
<path d="M118.34 5.12294L119.107 5.8977L120.08 5.40818L119.58 6.37653L120.347 7.15129L119.271 6.975L118.771 7.94335L118.607 6.86605L117.531 6.68976L118.505 6.20024L118.34 5.12294Z" fill="#DDDDDD"/>
<path d="M93.3402 2.12294L94.1066 2.8977L95.0803 2.40818L94.5803 3.37653L95.3467 4.15129L94.2713 3.975L93.7713 4.94335L93.6066 3.86605L92.5312 3.68976L93.5048 3.20024L93.3402 2.12294Z" fill="#DDDDDD"/>
<path d="M70.167 4.25388L69.4855 5.10426L70.0836 6.01526L69.0642 5.62983L68.3826 6.48021L68.4342 5.39162L67.4148 5.00619L68.4661 4.71883L68.5176 3.63024L69.1158 4.54124L70.167 4.25388Z" fill="#DDDDDD"/>
<path d="M61.3696 20.7841L61.1149 21.8437L62.044 22.4134L60.9575 22.4986L60.7028 23.5582L60.286 22.5513L59.1995 22.6365L60.0284 21.9289L59.6116 20.922L60.5407 21.4916L61.3696 20.7841Z" fill="#DDDDDD"/>
<path d="M45.268 15.3806L44.4456 16.0958L44.8716 17.0989L43.9374 16.5378L43.115 17.2529L43.36 16.191L42.4257 15.6298L43.5114 15.5347L43.7563 14.4727L44.1823 15.4758L45.268 15.3806Z" fill="#DDDDDD"/>
<path d="M118.073 27.6189L117.027 27.9246L116.994 29.0139L116.38 28.1135L115.334 28.4191L116.001 27.557L115.387 26.6565L116.413 27.0241L117.08 26.162L117.047 27.2513L118.073 27.6189Z" fill="#DDDDDD"/>
<path d="M89.2126 30.2974L88.4852 31.1089L89.0322 32.0515L88.0356 31.6104L87.3082 32.4219L87.4197 31.3378L86.4231 30.8968L87.4886 30.6678L87.6001 29.5837L88.1471 30.5263L89.2126 30.2974Z" fill="#DDDDDD"/>
<path d="M158.393 11.2137L157.312 11.353L157.111 12.4241L156.644 11.4392L155.564 11.5785L156.356 10.8304L155.89 9.84553L156.846 10.3681L157.638 9.62009L157.437 10.6911L158.393 11.2137Z" fill="#DDDDDD"/>
<path d="M156.641 30.8726L155.553 30.8023L155.15 31.8149L154.881 30.7588L153.794 30.6886L154.715 30.1062L154.445 29.0501L155.284 29.7462L156.205 29.1639L155.802 30.1765L156.641 30.8726Z" fill="#DDDDDD"/>
<path d="M177.085 4.49713L176.071 4.89732L176.139 5.98505L175.445 5.14465L174.431 5.54484L175.016 4.62526L174.322 3.78486L175.378 4.05692L175.962 3.13734L176.03 4.22507L177.085 4.49713Z" fill="#DDDDDD"/>
<path d="M60.1688 37.2554L59.4856 38.1045L60.082 39.0167L59.0634 38.6293L58.3802 39.4784L58.4338 38.3899L57.4152 38.0025L58.467 37.7172L58.5206 36.6287L59.117 37.5408L60.1688 37.2554Z" fill="#DDDDDD"/>
<path d="M84.4575 15.3561L83.3719 15.4527L83.1284 16.5149L82.7011 15.5124L81.6155 15.609L82.437 14.8928L82.0096 13.8902L82.9446 14.4501L83.7661 13.7339L83.5225 14.7962L84.4575 15.3561Z" fill="#DDDDDD"/>
<path d="M140.68 4.94263L140.291 5.96051L141.139 6.64538L140.05 6.5896L139.661 7.60748L139.378 6.55512L138.289 6.49934L139.203 5.90473L138.919 4.85238L139.767 5.53724L140.68 4.94263Z" fill="#DDDDDD"/>
<path d="M175.68 39.9426L175.291 40.9605L176.139 41.6454L175.05 41.5896L174.661 42.6075L174.378 41.5551L173.289 41.4993L174.203 40.9047L173.919 39.8524L174.767 40.5372L175.68 39.9426Z" fill="#DDDDDD"/>
<path d="M140.052 58.9426L139.663 59.9605L140.51 60.6454L139.422 60.5896L139.033 61.6075L138.749 60.5551L137.661 60.4993L138.574 59.9047L138.291 58.8524L139.139 59.5372L140.052 58.9426Z" fill="#DDDDDD"/>
<path d="M104.424 77.9426L104.034 78.9605L104.882 79.6454L103.794 79.5896L103.404 80.6075L103.121 79.5551L102.033 79.4993L102.946 78.9047L102.663 77.8524L103.51 78.5372L104.424 77.9426Z" fill="#DDDDDD"/>
<path d="M68.7952 96.9426L68.4058 97.9605L69.2536 98.6454L68.1652 98.5896L67.7758 99.6075L67.4925 98.5551L66.4042 98.4993L67.3175 97.9047L67.0342 96.8524L67.8819 97.5372L68.7952 96.9426Z" fill="#DDDDDD"/>
<path d="M33.1668 115.943L32.7774 116.961L33.6252 117.645L32.5368 117.59L32.1474 118.607L31.8641 117.555L30.7757 117.499L31.689 116.905L31.4058 115.852L32.2535 116.537L33.1668 115.943Z" fill="#DDDDDD"/>
<path d="M23.0521 48.9426L22.6627 49.9605L23.5104 50.6454L22.422 50.5896L22.0327 51.6075L21.7494 50.5551L20.661 50.4993L21.5743 49.9047L21.291 48.8524L22.1388 49.5372L23.0521 48.9426Z" fill="#DDDDDD"/>
<path d="M49.0521 58.9426L48.6627 59.9605L49.5104 60.6454L48.422 60.5896L48.0327 61.6075L47.7494 60.5551L46.661 60.4993L47.5743 59.9047L47.291 58.8524L48.1388 59.5372L49.0521 58.9426Z" fill="#DDDDDD"/>
<path d="M75.0521 68.9426L74.6627 69.9605L75.5104 70.6454L74.422 70.5896L74.0327 71.6075L73.7494 70.5551L72.661 70.4993L73.5743 69.9047L73.291 68.8524L74.1388 69.5372L75.0521 68.9426Z" fill="#DDDDDD"/>
<path d="M91.0521 54.9426L90.6627 55.9605L91.5104 56.6454L90.422 56.5896L90.0327 57.6075L89.7494 56.5551L88.661 56.4993L89.5743 55.9047L89.291 54.8524L90.1388 55.5372L91.0521 54.9426Z" fill="#DDDDDD"/>
<path d="M164.052 70.9426L163.663 71.9605L164.51 72.6454L163.422 72.5896L163.033 73.6075L162.749 72.5551L161.661 72.4993L162.574 71.9047L162.291 70.8524L163.139 71.5372L164.052 70.9426Z" fill="#DDDDDD"/>
<path d="M237.052 86.9426L236.663 87.9605L237.51 88.6454L236.422 88.5896L236.033 89.6075L235.749 88.5551L234.661 88.4993L235.574 87.9047L235.291 86.8524L236.139 87.5372L237.052 86.9426Z" fill="#DDDDDD"/>
<path d="M310.052 102.943L309.663 103.961L310.51 104.645L309.422 104.59L309.033 105.607L308.749 104.555L307.661 104.499L308.574 103.905L308.291 102.852L309.139 103.537L310.052 102.943Z" fill="#DDDDDD"/>
<path d="M217.052 22.9426L216.663 23.9605L217.51 24.6454L216.422 24.5896L216.033 25.6075L215.749 24.5551L214.661 24.4993L215.574 23.9047L215.291 22.8524L216.139 23.5372L217.052 22.9426Z" fill="#DDDDDD"/>
<path d="M203.052 8.94263L202.663 9.96051L203.51 10.6454L202.422 10.5896L202.033 11.6075L201.749 10.5551L200.661 10.4993L201.574 9.90473L201.291 8.85238L202.139 9.53724L203.052 8.94263Z" fill="#DDDDDD"/>
<path d="M316.052 72.9426L315.663 73.9605L316.51 74.6454L315.422 74.5896L315.033 75.6075L314.749 74.5551L313.661 74.4993L314.574 73.9047L314.291 72.8524L315.139 73.5372L316.052 72.9426Z" fill="#DDDDDD"/>
<path d="M301.052 54.9426L300.663 55.9605L301.51 56.6454L300.422 56.5896L300.033 57.6075L299.749 56.5551L298.661 56.4993L299.574 55.9047L299.291 54.8524L300.139 55.5372L301.052 54.9426Z" fill="#DDDDDD"/>
<path d="M286.052 36.9426L285.663 37.9605L286.51 38.6454L285.422 38.5896L285.033 39.6075L284.749 38.5551L283.661 38.4993L284.574 37.9047L284.291 36.8524L285.139 37.5372L286.052 36.9426Z" fill="#DDDDDD"/>
<path d="M262.052 18.9426L261.663 19.9605L262.51 20.6454L261.422 20.5896L261.033 21.6075L260.749 20.5551L259.661 20.4993L260.574 19.9047L260.291 18.8524L261.139 19.5372L262.052 18.9426Z" fill="#DDDDDD"/>
<path d="M241.052 12.9426L240.663 13.9605L241.51 14.6454L240.422 14.5896L240.033 15.6075L239.749 14.5551L238.661 14.4993L239.574 13.9047L239.291 12.8524L240.139 13.5372L241.052 12.9426Z" fill="#DDDDDD"/>
<path d="M197.052 32.9426L196.663 33.9605L197.51 34.6454L196.422 34.5896L196.033 35.6075L195.749 34.5551L194.661 34.4993L195.574 33.9047L195.291 32.8524L196.139 33.5372L197.052 32.9426Z" fill="#DDDDDD"/>
<path d="M231.052 41.9426L230.663 42.9605L231.51 43.6454L230.422 43.5896L230.033 44.6075L229.749 43.5551L228.661 43.4993L229.574 42.9047L229.291 41.8524L230.139 42.5372L231.052 41.9426Z" fill="#DDDDDD"/>
<path d="M265.052 50.9426L264.663 51.9605L265.51 52.6454L264.422 52.5896L264.033 53.6075L263.749 52.5551L262.661 52.4993L263.574 51.9047L263.291 50.8524L264.139 51.5372L265.052 50.9426Z" fill="#DDDDDD"/>
<path d="M243.052 58.9426L242.663 59.9605L243.51 60.6454L242.422 60.5896L242.033 61.6075L241.749 60.5551L240.661 60.4993L241.574 59.9047L241.291 58.8524L242.139 59.5372L243.052 58.9426Z" fill="#DDDDDD"/>
<path d="M221.052 66.9426L220.663 67.9605L221.51 68.6454L220.422 68.5896L220.033 69.6075L219.749 68.5551L218.661 68.4993L219.574 67.9047L219.291 66.8524L220.139 67.5372L221.052 66.9426Z" fill="#DDDDDD"/>
<path d="M195.052 54.9426L194.663 55.9605L195.51 56.6454L194.422 56.5896L194.033 57.6075L193.749 56.5551L192.661 56.4993L193.574 55.9047L193.291 54.8524L194.139 55.5372L195.052 54.9426Z" fill="#DDDDDD"/>
<path d="M114.052 62.9426L113.663 63.9605L114.51 64.6454L113.422 64.5896L113.033 65.6075L112.749 64.5551L111.661 64.4993L112.574 63.9047L112.291 62.8524L113.139 63.5372L114.052 62.9426Z" fill="#DDDDDD"/>
<path d="M27.0521 77.9426L26.6627 78.9605L27.5104 79.6454L26.422 79.5896L26.0327 80.6075L25.7494 79.5551L24.661 79.4993L25.5743 78.9047L25.291 77.8524L26.1388 78.5372L27.0521 77.9426Z" fill="#DDDDDD"/>
<path d="M213.052 159.943L212.663 160.961L213.51 161.645L212.422 161.59L212.033 162.607L211.749 161.555L210.661 161.499L211.574 160.905L211.291 159.852L212.139 160.537L213.052 159.943Z" fill="#DDDDDD"/>
<path d="M60.0521 129.943L59.6627 130.961L60.5104 131.645L59.422 131.59L59.0327 132.607L58.7494 131.555L57.661 131.499L58.5743 130.905L58.291 129.852L59.1388 130.537L60.0521 129.943Z" fill="#DDDDDD"/>
<path d="M209.052 131.943L208.663 132.961L209.51 133.645L208.422 133.59L208.033 134.607L207.749 133.555L206.661 133.499L207.574 132.905L207.291 131.852L208.139 132.537L209.052 131.943Z" fill="#DDDDDD"/>
<path d="M259.052 129.943L258.663 130.961L259.51 131.645L258.422 131.59L258.033 132.607L257.749 131.555L256.661 131.499L257.574 130.905L257.291 129.852L258.139 130.537L259.052 129.943Z" fill="#DDDDDD"/>
<path d="M309.052 127.943L308.663 128.961L309.51 129.645L308.422 129.59L308.033 130.607L307.749 129.555L306.661 129.499L307.574 128.905L307.291 127.852L308.139 128.537L309.052 127.943Z" fill="#DDDDDD"/>
<path d="M282.052 152.943L281.663 153.961L282.51 154.645L281.422 154.59L281.033 155.607L280.749 154.555L279.661 154.499L280.574 153.905L280.291 152.852L281.139 153.537L282.052 152.943Z" fill="#DDDDDD"/>
<path d="M255.052 177.943L254.663 178.961L255.51 179.645L254.422 179.59L254.033 180.607L253.749 179.555L252.661 179.499L253.574 178.905L253.291 177.852L254.139 178.537L255.052 177.943Z" fill="#DDDDDD"/>
<path d="M228.052 202.943L227.663 203.961L228.51 204.645L227.422 204.59L227.033 205.607L226.749 204.555L225.661 204.499L226.574 203.905L226.291 202.852L227.139 203.537L228.052 202.943Z" fill="#DDDDDD"/>
<path d="M201.052 227.943L200.663 228.961L201.51 229.645L200.422 229.59L200.033 230.607L199.749 229.555L198.661 229.499L199.574 228.905L199.291 227.852L200.139 228.537L201.052 227.943Z" fill="#DDDDDD"/>
<path d="M174.052 252.943L173.663 253.961L174.51 254.645L173.422 254.59L173.033 255.607L172.749 254.555L171.661 254.499L172.574 253.905L172.291 252.852L173.139 253.537L174.052 252.943Z" fill="#DDDDDD"/>
<path d="M170.052 147.943L169.663 148.961L170.51 149.645L169.422 149.59L169.033 150.607L168.749 149.555L167.661 149.499L168.574 148.905L168.291 147.852L169.139 148.537L170.052 147.943Z" fill="#DDDDDD"/>
<path d="M134.052 96.9426L133.663 97.9605L134.51 98.6454L133.422 98.5896L133.033 99.6075L132.749 98.5551L131.661 98.4993L132.574 97.9047L132.291 96.8524L133.139 97.5372L134.052 96.9426Z" fill="#DDDDDD"/>
<path d="M170.052 110.943L169.663 111.961L170.51 112.645L169.422 112.59L169.033 113.607L168.749 112.555L167.661 112.499L168.574 111.905L168.291 110.852L169.139 111.537L170.052 110.943Z" fill="#DDDDDD"/>
<path d="M195.052 96.9426L194.663 97.9605L195.51 98.6454L194.422 98.5896L194.033 99.6075L193.749 98.5551L192.661 98.4993L193.574 97.9047L193.291 96.8524L194.139 97.5372L195.052 96.9426Z" fill="#DDDDDD"/>
<path d="M275.052 88.9426L274.663 89.9605L275.51 90.6454L274.422 90.5896L274.033 91.6075L273.749 90.5551L272.661 90.4993L273.574 89.9047L273.291 88.8524L274.139 89.5372L275.052 88.9426Z" fill="#DDDDDD"/>
<path d="M316.052 20.9426L315.663 21.9605L316.51 22.6454L315.422 22.5896L315.033 23.6075L314.749 22.5551L313.661 22.4993L314.574 21.9047L314.291 20.8524L315.139 21.5372L316.052 20.9426Z" fill="#DDDDDD"/>
<path d="M347.052 14.9426L346.663 15.9605L347.51 16.6454L346.422 16.5896L346.033 17.6075L345.749 16.5551L344.661 16.4993L345.574 15.9047L345.291 14.8524L346.139 15.5372L347.052 14.9426Z" fill="#DDDDDD"/>
<path d="M364.052 33.9426L363.663 34.9605L364.51 35.6454L363.422 35.5896L363.033 36.6075L362.749 35.5551L361.661 35.4993L362.574 34.9047L362.291 33.8524L363.139 34.5372L364.052 33.9426Z" fill="#DDDDDD"/>
<path d="M388.052 19.9426L387.663 20.9605L388.51 21.6454L387.422 21.5896L387.033 22.6075L386.749 21.5551L385.661 21.4993L386.574 20.9047L386.291 19.8524L387.139 20.5372L388.052 19.9426Z" fill="#DDDDDD"/>
<path d="M398.052 4.94263L397.663 5.96051L398.51 6.64538L397.422 6.5896L397.033 7.60748L396.749 6.55512L395.661 6.49934L396.574 5.90473L396.291 4.85238L397.139 5.53724L398.052 4.94263Z" fill="#DDDDDD"/>
<path d="M420.052 20.9426L419.663 21.9605L420.51 22.6454L419.422 22.5896L419.033 23.6075L418.749 22.5551L417.661 22.4993L418.574 21.9047L418.291 20.8524L419.139 21.5372L420.052 20.9426Z" fill="#DDDDDD"/>
<path d="M446.052 8.94263L445.663 9.96051L446.51 10.6454L445.422 10.5896L445.033 11.6075L444.749 10.5551L443.661 10.4993L444.574 9.90473L444.291 8.85238L445.139 9.53724L446.052 8.94263Z" fill="#DDDDDD"/>
<path d="M481.052 8.94263L480.663 9.96051L481.51 10.6454L480.422 10.5896L480.033 11.6075L479.749 10.5551L478.661 10.4993L479.574 9.90473L479.291 8.85238L480.139 9.53724L481.052 8.94263Z" fill="#DDDDDD"/>
<path d="M472.052 32.9426L471.663 33.9605L472.51 34.6454L471.422 34.5896L471.033 35.6075L470.749 34.5551L469.661 34.4993L470.574 33.9047L470.291 32.8524L471.139 33.5372L472.052 32.9426Z" fill="#DDDDDD"/>
<path d="M446.052 32.9426L445.663 33.9605L446.51 34.6454L445.422 34.5896L445.033 35.6075L444.749 34.5551L443.661 34.4993L444.574 33.9047L444.291 32.8524L445.139 33.5372L446.052 32.9426Z" fill="#DDDDDD"/>
<path d="M422.052 40.9426L421.663 41.9605L422.51 42.6454L421.422 42.5896L421.033 43.6075L420.749 42.5551L419.661 42.4993L420.574 41.9047L420.291 40.8524L421.139 41.5372L422.052 40.9426Z" fill="#DDDDDD"/>
<path d="M385.052 65.9426L384.663 66.9605L385.51 67.6454L384.422 67.5896L384.033 68.6075L383.749 67.5551L382.661 67.4993L383.574 66.9047L383.291 65.8524L384.139 66.5372L385.052 65.9426Z" fill="#DDDDDD"/>
<path d="M416.052 70.9426L415.663 71.9605L416.51 72.6454L415.422 72.5896L415.033 73.6075L414.749 72.5551L413.661 72.4993L414.574 71.9047L414.291 70.8524L415.139 71.5372L416.052 70.9426Z" fill="#DDDDDD"/>
<path d="M453.052 59.9426L452.663 60.9605L453.51 61.6454L452.422 61.5896L452.033 62.6075L451.749 61.5551L450.661 61.4993L451.574 60.9047L451.291 59.8524L452.139 60.5372L453.052 59.9426Z" fill="#DDDDDD"/>
<path d="M479.052 72.9426L478.663 73.9605L479.51 74.6454L478.422 74.5896L478.033 75.6075L477.749 74.5551L476.661 74.4993L477.574 73.9047L477.291 72.8524L478.139 73.5372L479.052 72.9426Z" fill="#DDDDDD"/>
<path d="M461.052 86.9426L460.663 87.9605L461.51 88.6454L460.422 88.5896L460.033 89.6075L459.749 88.5551L458.661 88.4993L459.574 87.9047L459.291 86.8524L460.139 87.5372L461.052 86.9426Z" fill="#DDDDDD"/>
<path d="M427.052 94.9426L426.663 95.9605L427.51 96.6454L426.422 96.5896L426.033 97.6075L425.749 96.5551L424.661 96.4993L425.574 95.9047L425.291 94.8524L426.139 95.5372L427.052 94.9426Z" fill="#DDDDDD"/>
<path d="M405.052 114.943L404.663 115.961L405.51 116.645L404.422 116.59L404.033 117.607L403.749 116.555L402.661 116.499L403.574 115.905L403.291 114.852L404.139 115.537L405.052 114.943Z" fill="#DDDDDD"/>
<path d="M429.052 125.943L428.663 126.961L429.51 127.645L428.422 127.59L428.033 128.607L427.749 127.555L426.661 127.499L427.574 126.905L427.291 125.852L428.139 126.537L429.052 125.943Z" fill="#DDDDDD"/>
<path d="M446.052 142.943L445.663 143.961L446.51 144.645L445.422 144.59L445.033 145.607L444.749 144.555L443.661 144.499L444.574 143.905L444.291 142.852L445.139 143.537L446.052 142.943Z" fill="#DDDDDD"/>
<path d="M477.052 127.943L476.663 128.961L477.51 129.645L476.422 129.59L476.033 130.607L475.749 129.555L474.661 129.499L475.574 128.905L475.291 127.852L476.139 128.537L477.052 127.943Z" fill="#DDDDDD"/>
<path d="M389.052 134.943L388.663 135.961L389.51 136.645L388.422 136.59L388.033 137.607L387.749 136.555L386.661 136.499L387.574 135.905L387.291 134.852L388.139 135.537L389.052 134.943Z" fill="#DDDDDD"/>
<path d="M414.052 152.943L413.663 153.961L414.51 154.645L413.422 154.59L413.033 155.607L412.749 154.555L411.661 154.499L412.574 153.905L412.291 152.852L413.139 153.537L414.052 152.943Z" fill="#DDDDDD"/>
<path d="M465.052 161.943L464.663 162.961L465.51 163.645L464.422 163.59L464.033 164.607L463.749 163.555L462.661 163.499L463.574 162.905L463.291 161.852L464.139 162.537L465.052 161.943Z" fill="#DDDDDD"/>
<path d="M481.052 150.943L480.663 151.961L481.51 152.645L480.422 152.59L480.033 153.607L479.749 152.555L478.661 152.499L479.574 151.905L479.291 150.852L480.139 151.537L481.052 150.943Z" fill="#DDDDDD"/>
<path d="M442.052 171.943L441.663 172.961L442.51 173.645L441.422 173.59L441.033 174.607L440.749 173.555L439.661 173.499L440.574 172.905L440.291 171.852L441.139 172.537L442.052 171.943Z" fill="#DDDDDD"/>
<path d="M420.052 200.943L419.663 201.961L420.51 202.645L419.422 202.59L419.033 203.607L418.749 202.555L417.661 202.499L418.574 201.905L418.291 200.852L419.139 201.537L420.052 200.943Z" fill="#DDDDDD"/>
<path d="M460.052 112.943L459.663 113.961L460.51 114.645L459.422 114.59L459.033 115.607L458.749 114.555L457.661 114.499L458.574 113.905L458.291 112.852L459.139 113.537L460.052 112.943Z" fill="#DDDDDD"/>
<path d="M394.052 46.9426L393.663 47.9605L394.51 48.6454L393.422 48.5896L393.033 49.6075L392.749 48.5551L391.661 48.4993L392.574 47.9047L392.291 46.8524L393.139 47.5372L394.052 46.9426Z" fill="#DDDDDD"/>
<path d="M338.052 48.9426L337.663 49.9605L338.51 50.6454L337.422 50.5896L337.033 51.6075L336.749 50.5551L335.661 50.4993L336.574 49.9047L336.291 48.8524L337.139 49.5372L338.052 48.9426Z" fill="#DDDDDD"/>
<path d="M349.052 72.9426L348.663 73.9605L349.51 74.6454L348.422 74.5896L348.033 75.6075L347.749 74.5551L346.661 74.4993L347.574 73.9047L347.291 72.8524L348.139 73.5372L349.052 72.9426Z" fill="#DDDDDD"/>
<path d="M375.052 86.9426L374.663 87.9605L375.51 88.6454L374.422 88.5896L374.033 89.6075L373.749 88.5551L372.661 88.4993L373.574 87.9047L373.291 86.8524L374.139 87.5372L375.052 86.9426Z" fill="#DDDDDD"/>
<path d="M340.052 92.9426L339.663 93.9605L340.51 94.6454L339.422 94.5896L339.033 95.6075L338.749 94.5551L337.661 94.4993L338.574 93.9047L338.291 92.8524L339.139 93.5372L340.052 92.9426Z" fill="#DDDDDD"/>
<path d="M358.052 110.943L357.663 111.961L358.51 112.645L357.422 112.59L357.033 113.607L356.749 112.555L355.661 112.499L356.574 111.905L356.291 110.852L357.139 111.537L358.052 110.943Z" fill="#DDDDDD"/>
<path d="M342.052 136.943L341.663 137.961L342.51 138.645L341.422 138.59L341.033 139.607L340.749 138.555L339.661 138.499L340.574 137.905L340.291 136.852L341.139 137.537L342.052 136.943Z" fill="#DDDDDD"/>
<path d="M351.052 167.943L350.663 168.961L351.51 169.645L350.422 169.59L350.033 170.607L349.749 169.555L348.661 169.499L349.574 168.905L349.291 167.852L350.139 168.537L351.052 167.943Z" fill="#DDDDDD"/>
<path d="M383.052 165.943L382.663 166.961L383.51 167.645L382.422 167.59L382.033 168.607L381.749 167.555L380.661 167.499L381.574 166.905L381.291 165.852L382.139 166.537L383.052 165.943Z" fill="#DDDDDD"/>
<path d="M393.052 189.943L392.663 190.961L393.51 191.645L392.422 191.59L392.033 192.607L391.749 191.555L390.661 191.499L391.574 190.905L391.291 189.852L392.139 190.537L393.052 189.943Z" fill="#DDDDDD"/>
<path d="M365.052 206.943L364.663 207.961L365.51 208.645L364.422 208.59L364.033 209.607L363.749 208.555L362.661 208.499L363.574 207.905L363.291 206.852L364.139 207.537L365.052 206.943Z" fill="#DDDDDD"/>
<path d="M353.052 238.943L352.663 239.961L353.51 240.645L352.422 240.59L352.033 241.607L351.749 240.555L350.661 240.499L351.574 239.905L351.291 238.852L352.139 239.537L353.052 238.943Z" fill="#DDDDDD"/>
<path d="M385.052 246.943L384.663 247.961L385.51 248.645L384.422 248.59L384.033 249.607L383.749 248.555L382.661 248.499L383.574 247.905L383.291 246.852L384.139 247.537L385.052 246.943Z" fill="#DDDDDD"/>
<path d="M403.052 229.943L402.663 230.961L403.51 231.645L402.422 231.59L402.033 232.607L401.749 231.555L400.661 231.499L401.574 230.905L401.291 229.852L402.139 230.537L403.052 229.943Z" fill="#DDDDDD"/>
<path d="M430.052 227.943L429.663 228.961L430.51 229.645L429.422 229.59L429.033 230.607L428.749 229.555L427.661 229.499L428.574 228.905L428.291 227.852L429.139 228.537L430.052 227.943Z" fill="#DDDDDD"/>
<path d="M450.052 212.943L449.663 213.961L450.51 214.645L449.422 214.59L449.033 215.607L448.749 214.555L447.661 214.499L448.574 213.905L448.291 212.852L449.139 213.537L450.052 212.943Z" fill="#DDDDDD"/>
<path d="M454.052 191.943L453.663 192.961L454.51 193.645L453.422 193.59L453.033 194.607L452.749 193.555L451.661 193.499L452.574 192.905L452.291 191.852L453.139 192.537L454.052 191.943Z" fill="#DDDDDD"/>
<path d="M477.052 198.943L476.663 199.961L477.51 200.645L476.422 200.59L476.033 201.607L475.749 200.555L474.661 200.499L475.574 199.905L475.291 198.852L476.139 199.537L477.052 198.943Z" fill="#DDDDDD"/>
<path d="M469.052 225.943L468.663 226.961L469.51 227.645L468.422 227.59L468.033 228.607L467.749 227.555L466.661 227.499L467.574 226.905L467.291 225.852L468.139 226.537L469.052 225.943Z" fill="#DDDDDD"/>
<path d="M456.052 246.943L455.663 247.961L456.51 248.645L455.422 248.59L455.033 249.607L454.749 248.555L453.661 248.499L454.574 247.905L454.291 246.852L455.139 247.537L456.052 246.943Z" fill="#DDDDDD"/>
<path d="M434.052 254.943L433.663 255.961L434.51 256.645L433.422 256.59L433.033 257.607L432.749 256.555L431.661 256.499L432.574 255.905L432.291 254.852L433.139 255.537L434.052 254.943Z" fill="#DDDDDD"/>
<path d="M407.052 263.943L406.663 264.961L407.51 265.645L406.422 265.59L406.033 266.607L405.749 265.555L404.661 265.499L405.574 264.905L405.291 263.852L406.139 264.537L407.052 263.943Z" fill="#DDDDDD"/>
<path d="M377.052 290.943L376.663 291.961L377.51 292.645L376.422 292.59L376.033 293.607L375.749 292.555L374.661 292.499L375.574 291.905L375.291 290.852L376.139 291.537L377.052 290.943Z" fill="#DDDDDD"/>
<path d="M409.052 315.943L408.663 316.961L409.51 317.645L408.422 317.59L408.033 318.607L407.749 317.555L406.661 317.499L407.574 316.905L407.291 315.852L408.139 316.537L409.052 315.943Z" fill="#DDDDDD"/>
<path d="M434.052 299.943L433.663 300.961L434.51 301.645L433.422 301.59L433.033 302.607L432.749 301.555L431.661 301.499L432.574 300.905L432.291 299.852L433.139 300.537L434.052 299.943Z" fill="#DDDDDD"/>
<path d="M452.052 282.943L451.663 283.961L452.51 284.645L451.422 284.59L451.033 285.607L450.749 284.555L449.661 284.499L450.574 283.905L450.291 282.852L451.139 283.537L452.052 282.943Z" fill="#DDDDDD"/>
<path d="M477.052 297.943L476.663 298.961L477.51 299.645L476.422 299.59L476.033 300.607L475.749 299.555L474.661 299.499L475.574 298.905L475.291 297.852L476.139 298.537L477.052 297.943Z" fill="#DDDDDD"/>
<path d="M465.052 331.943L464.663 332.961L465.51 333.645L464.422 333.59L464.033 334.607L463.749 333.555L462.661 333.499L463.574 332.905L463.291 331.852L464.139 332.537L465.052 331.943Z" fill="#DDDDDD"/>
<path d="M432.052 344.943L431.663 345.961L432.51 346.645L431.422 346.59L431.033 347.607L430.749 346.555L429.661 346.499L430.574 345.905L430.291 344.852L431.139 345.537L432.052 344.943Z" fill="#DDDDDD"/>
<path d="M369.052 323.943L368.663 324.961L369.51 325.645L368.422 325.59L368.033 326.607L367.749 325.555L366.661 325.499L367.574 324.905L367.291 323.852L368.139 324.537L369.052 323.943Z" fill="#DDDDDD"/>
<path d="M338.052 353.943L337.663 354.961L338.51 355.645L337.422 355.59L337.033 356.607L336.749 355.555L335.661 355.499L336.574 354.905L336.291 353.852L337.139 354.537L338.052 353.943Z" fill="#DDDDDD"/>
<path d="M375.052 367.943L374.663 368.961L375.51 369.645L374.422 369.59L374.033 370.607L373.749 369.555L372.661 369.499L373.574 368.905L373.291 367.852L374.139 368.537L375.052 367.943Z" fill="#DDDDDD"/>
<path d="M409.052 371.943L408.663 372.961L409.51 373.645L408.422 373.59L408.033 374.607L407.749 373.555L406.661 373.499L407.574 372.905L407.291 371.852L408.139 372.537L409.052 371.943Z" fill="#DDDDDD"/>
<path d="M420.052 392.943L419.663 393.961L420.51 394.645L419.422 394.59L419.033 395.607L418.749 394.555L417.661 394.499L418.574 393.905L418.291 392.852L419.139 393.537L420.052 392.943Z" fill="#DDDDDD"/>
<path d="M373.052 409.943L372.663 410.961L373.51 411.645L372.422 411.59L372.033 412.607L371.749 411.555L370.661 411.499L371.574 410.905L371.291 409.852L372.139 410.537L373.052 409.943Z" fill="#DDDDDD"/>
<path d="M454.052 378.943L453.663 379.961L454.51 380.645L453.422 380.59L453.033 381.607L452.749 380.555L451.661 380.499L452.574 379.905L452.291 378.852L453.139 379.537L454.052 378.943Z" fill="#DDDDDD"/>
<path d="M479.052 396.943L478.663 397.961L479.51 398.645L478.422 398.59L478.033 399.607L477.749 398.555L476.661 398.499L477.574 397.905L477.291 396.852L478.139 397.537L479.052 396.943Z" fill="#DDDDDD"/>
<path d="M454.052 421.943L453.663 422.961L454.51 423.645L453.422 423.59L453.033 424.607L452.749 423.555L451.661 423.499L452.574 422.905L452.291 421.852L453.139 422.537L454.052 421.943Z" fill="#DDDDDD"/>
<path d="M424.052 428.943L423.663 429.961L424.51 430.645L423.422 430.59L423.033 431.607L422.749 430.555L421.661 430.499L422.574 429.905L422.291 428.852L423.139 429.537L424.052 428.943Z" fill="#DDDDDD"/>
<path d="M394.052 439.943L393.663 440.961L394.51 441.645L393.422 441.59L393.033 442.607L392.749 441.555L391.661 441.499L392.574 440.905L392.291 439.852L393.139 440.537L394.052 439.943Z" fill="#DDDDDD"/>
<path d="M367.052 460.943L366.663 461.961L367.51 462.645L366.422 462.59L366.033 463.607L365.749 462.555L364.661 462.499L365.574 461.905L365.291 460.852L366.139 461.537L367.052 460.943Z" fill="#DDDDDD"/>
<path d="M392.052 469.943L391.663 470.961L392.51 471.645L391.422 471.59L391.033 472.607L390.749 471.555L389.661 471.499L390.574 470.905L390.291 469.852L391.139 470.537L392.052 469.943Z" fill="#DDDDDD"/>
<path d="M432.052 460.943L431.663 461.961L432.51 462.645L431.422 462.59L431.033 463.607L430.749 462.555L429.661 462.499L430.574 461.905L430.291 460.852L431.139 461.537L432.052 460.943Z" fill="#DDDDDD"/>
<path d="M461.052 447.943L460.663 448.961L461.51 449.645L460.422 449.59L460.033 450.607L459.749 449.555L458.661 449.499L459.574 448.905L459.291 447.852L460.139 448.537L461.052 447.943Z" fill="#DDDDDD"/>
<path d="M477.052 471.943L476.663 472.961L477.51 473.645L476.422 473.59L476.033 474.607L475.749 473.555L474.661 473.499L475.574 472.905L475.291 471.852L476.139 472.537L477.052 471.943Z" fill="#DDDDDD"/>
<path d="M458.052 492.943L457.663 493.961L458.51 494.645L457.422 494.59L457.033 495.607L456.749 494.555L455.661 494.499L456.574 493.905L456.291 492.852L457.139 493.537L458.052 492.943Z" fill="#DDDDDD"/>
<path d="M398.052 492.943L397.663 493.961L398.51 494.645L397.422 494.59L397.033 495.607L396.749 494.555L395.661 494.499L396.574 493.905L396.291 492.852L397.139 493.537L398.052 492.943Z" fill="#DDDDDD"/>
<path d="M430.052 500.943L429.663 501.961L430.51 502.645L429.422 502.59L429.033 503.607L428.749 502.555L427.661 502.499L428.574 501.905L428.291 500.852L429.139 501.537L430.052 500.943Z" fill="#DDDDDD"/>
<path d="M360.052 485.943L359.663 486.961L360.51 487.645L359.422 487.59L359.033 488.607L358.749 487.555L357.661 487.499L358.574 486.905L358.291 485.852L359.139 486.537L360.052 485.943Z" fill="#DDDDDD"/>
<path d="M377.052 516.943L376.663 517.961L377.51 518.645L376.422 518.59L376.033 519.607L375.749 518.555L374.661 518.499L375.574 517.905L375.291 516.852L376.139 517.537L377.052 516.943Z" fill="#DDDDDD"/>
<path d="M356.052 539.943L355.663 540.961L356.51 541.645L355.422 541.59L355.033 542.607L354.749 541.555L353.661 541.499L354.574 540.905L354.291 539.852L355.139 540.537L356.052 539.943Z" fill="#DDDDDD"/>
<path d="M418.052 522.943L417.663 523.961L418.51 524.645L417.422 524.59L417.033 525.607L416.749 524.555L415.661 524.499L416.574 523.905L416.291 522.852L417.139 523.537L418.052 522.943Z" fill="#DDDDDD"/>
<path d="M465.052 524.943L464.663 525.961L465.51 526.645L464.422 526.59L464.033 527.607L463.749 526.555L462.661 526.499L463.574 525.905L463.291 524.852L464.139 525.537L465.052 524.943Z" fill="#DDDDDD"/>
<path d="M439.052 543.943L438.663 544.961L439.51 545.645L438.422 545.59L438.033 546.607L437.749 545.555L436.661 545.499L437.574 544.905L437.291 543.852L438.139 544.537L439.052 543.943Z" fill="#DDDDDD"/>
<path d="M319.052 159.943L318.663 160.961L319.51 161.645L318.422 161.59L318.033 162.607L317.749 161.555L316.661 161.499L317.574 160.905L317.291 159.852L318.139 160.537L319.052 159.943Z" fill="#DDDDDD"/>
<path d="M295.052 177.943L294.663 178.961L295.51 179.645L294.422 179.59L294.033 180.607L293.749 179.555L292.661 179.499L293.574 178.905L293.291 177.852L294.139 178.537L295.052 177.943Z" fill="#DDDDDD"/>
<path d="M328.052 191.943L327.663 192.961L328.51 193.645L327.422 193.59L327.033 194.607L326.749 193.555L325.661 193.499L326.574 192.905L326.291 191.852L327.139 192.537L328.052 191.943Z" fill="#DDDDDD"/>
<path d="M303.052 202.943L302.663 203.961L303.51 204.645L302.422 204.59L302.033 205.607L301.749 204.555L300.661 204.499L301.574 203.905L301.291 202.852L302.139 203.537L303.052 202.943Z" fill="#DDDDDD"/>
<path d="M274.052 193.943L273.663 194.961L274.51 195.645L273.422 195.59L273.033 196.607L272.749 195.555L271.661 195.499L272.574 194.905L272.291 193.852L273.139 194.537L274.052 193.943Z" fill="#DDDDDD"/>
<path d="M236.052 148.943L235.663 149.961L236.51 150.645L235.422 150.59L235.033 151.607L234.749 150.555L233.661 150.499L234.574 149.905L234.291 148.852L235.139 149.537L236.052 148.943Z" fill="#DDDDDD"/>
<path d="M227.052 110.943L226.663 111.961L227.51 112.645L226.422 112.59L226.033 113.607L225.749 112.555L224.661 112.499L225.574 111.905L225.291 110.852L226.139 111.537L227.052 110.943Z" fill="#DDDDDD"/>
<path d="M93.0521 104.943L92.6627 105.961L93.5104 106.645L92.422 106.59L92.0327 107.607L91.7494 106.555L90.661 106.499L91.5743 105.905L91.291 104.852L92.1388 105.537L93.0521 104.943Z" fill="#DDDDDD"/>
<path d="M116.052 119.943L115.663 120.961L116.51 121.645L115.422 121.59L115.033 122.607L114.749 121.555L113.661 121.499L114.574 120.905L114.291 119.852L115.139 120.537L116.052 119.943Z" fill="#DDDDDD"/>
<path d="M154.052 129.943L153.663 130.961L154.51 131.645L153.422 131.59L153.033 132.607L152.749 131.555L151.661 131.499L152.574 130.905L152.291 129.852L153.139 130.537L154.052 129.943Z" fill="#DDDDDD"/>
<path d="M176.052 202.943L175.663 203.961L176.51 204.645L175.422 204.59L175.033 205.607L174.749 204.555L173.661 204.499L174.574 203.905L174.291 202.852L175.139 203.537L176.052 202.943Z" fill="#DDDDDD"/>
<path d="M107.052 141.943L106.663 142.961L107.51 143.645L106.422 143.59L106.033 144.607L105.749 143.555L104.661 143.499L105.574 142.905L105.291 141.852L106.139 142.537L107.052 141.943Z" fill="#DDDDDD"/>
<path d="M77.0521 145.943L76.6627 146.961L77.5104 147.645L76.422 147.59L76.0327 148.607L75.7494 147.555L74.661 147.499L75.5743 146.905L75.291 145.852L76.1388 146.537L77.0521 145.943Z" fill="#DDDDDD"/>
<path d="M37.0521 145.943L36.6627 146.961L37.5104 147.645L36.422 147.59L36.0327 148.607L35.7494 147.555L34.661 147.499L35.5743 146.905L35.291 145.852L36.1388 146.537L37.0521 145.943Z" fill="#DDDDDD"/>
<path d="M9.05206 133.943L8.66268 134.961L9.51042 135.645L8.42203 135.59L8.03265 136.607L7.74937 135.555L6.66099 135.499L7.5743 134.905L7.29102 133.852L8.13875 134.537L9.05206 133.943Z" fill="#DDDDDD"/>
<path d="M148.052 212.943L147.663 213.961L148.51 214.645L147.422 214.59L147.033 215.607L146.749 214.555L145.661 214.499L146.574 213.905L146.291 212.852L147.139 213.537L148.052 212.943Z" fill="#DDDDDD"/>
<path d="M253.052 210.943L252.663 211.961L253.51 212.645L252.422 212.59L252.033 213.607L251.749 212.555L250.661 212.499L251.574 211.905L251.291 210.852L252.139 211.537L253.052 210.943Z" fill="#DDDDDD"/>
<path d="M332.052 216.943L331.663 217.961L332.51 218.645L331.422 218.59L331.033 219.607L330.749 218.555L329.661 218.499L330.574 217.905L330.291 216.852L331.139 217.537L332.052 216.943Z" fill="#DDDDDD"/>
<path d="M109.11 39.4949L108.105 39.9159L108.194 41.002L107.483 40.1761L106.478 40.5971L107.044 39.6656L106.333 38.8397L107.394 39.09L107.959 38.1585L108.049 39.2446L109.11 39.4949Z" fill="#DDDDDD"/>
<path d="M138.06 24.1714L137.461 25.0818L138.142 25.9328L137.091 25.6444L136.492 26.5549L136.442 25.4662L135.391 25.1778L136.41 24.7934L136.36 23.7048L137.041 24.5558L138.06 24.1714Z" fill="#DDDDDD"/>
<path d="M3.42891 30.7605L4.06503 31.6454L5.10319 31.3139L4.45817 32.1923L5.09429 33.0772L4.05953 32.7352L3.41451 33.6137L3.42001 32.5239L2.38525 32.1819L3.42341 31.8503L3.42891 30.7605Z" fill="#DDDDDD"/>
<path d="M33.9077 26.0719L33.4026 27.0376L34.165 27.8164L33.0905 27.6344L32.5854 28.6002L32.4264 27.522L31.3519 27.3401L32.3281 26.8557L32.1691 25.7775L32.9315 26.5563L33.9077 26.0719Z" fill="#DDDDDD"/>
<path d="M170.345 19.1084L171.106 19.8882L172.083 19.405L171.576 20.37L172.338 21.1498L171.264 20.9665L170.757 21.9316L170.6 20.8532L169.525 20.67L170.502 20.1868L170.345 19.1084Z" fill="#DDDDDD"/>
<path d="M1.47582 2.62586L1.99251 3.58541L3.06476 3.39053L2.31183 4.17844L2.82852 5.13799L1.8465 4.6654L1.09358 5.45331L1.23959 4.37332L0.257573 3.90073L1.32982 3.70585L1.47582 2.62586Z" fill="#DDDDDD"/>
<path d="M93.0521 175.943L92.6627 176.961L93.5104 177.645L92.422 177.59L92.0327 178.607L91.7494 177.555L90.661 177.499L91.5743 176.905L91.291 175.852L92.1388 176.537L93.0521 175.943Z" fill="#DDDDDD"/>
<path d="M16.0521 167.943L15.6627 168.961L16.5104 169.645L15.422 169.59L15.0327 170.607L14.7494 169.555L13.661 169.499L14.5743 168.905L14.291 167.852L15.1388 168.537L16.0521 167.943Z" fill="#DDDDDD"/>
<path d="M33.0521 184.943L32.6627 185.961L33.5104 186.645L32.422 186.59L32.0327 187.607L31.7494 186.555L30.661 186.499L31.5743 185.905L31.291 184.852L32.1388 185.537L33.0521 184.943Z" fill="#DDDDDD"/>
<path d="M62.0521 195.943L61.6627 196.961L62.5104 197.645L61.422 197.59L61.0327 198.607L60.7494 197.555L59.661 197.499L60.5743 196.905L60.291 195.852L61.1388 196.537L62.0521 195.943Z" fill="#DDDDDD"/>
<path d="M58.0521 162.943L57.6627 163.961L58.5104 164.645L57.422 164.59L57.0327 165.607L56.7494 164.555L55.661 164.499L56.5743 163.905L56.291 162.852L57.1388 163.537L58.0521 162.943Z" fill="#DDDDDD"/>
<path d="M146.052 169.943L145.663 170.961L146.51 171.645L145.422 171.59L145.033 172.607L144.749 171.555L143.661 171.499L144.574 170.905L144.291 169.852L145.139 170.537L146.052 169.943Z" fill="#DDDDDD"/>
<path d="M189.052 177.943L188.663 178.961L189.51 179.645L188.422 179.59L188.033 180.607L187.749 179.555L186.661 179.499L187.574 178.905L187.291 177.852L188.139 178.537L189.052 177.943Z" fill="#DDDDDD"/>
<path d="M116.052 195.943L115.663 196.961L116.51 197.645L115.422 197.59L115.033 198.607L114.749 197.555L113.661 197.499L114.574 196.905L114.291 195.852L115.139 196.537L116.052 195.943Z" fill="#DDDDDD"/>
<path d="M104.052 233.943L103.663 234.961L104.51 235.645L103.422 235.59L103.033 236.607L102.749 235.555L101.661 235.499L102.574 234.905L102.291 233.852L103.139 234.537L104.052 233.943Z" fill="#DDDDDD"/>
<path d="M130.052 246.943L129.663 247.961L130.51 248.645L129.422 248.59L129.033 249.607L128.749 248.555L127.661 248.499L128.574 247.905L128.291 246.852L129.139 247.537L130.052 246.943Z" fill="#DDDDDD"/>
<path d="M69.0521 254.943L68.6627 255.961L69.5104 256.645L68.422 256.59L68.0327 257.607L67.7494 256.555L66.661 256.499L67.5743 255.905L67.291 254.852L68.1388 255.537L69.0521 254.943Z" fill="#DDDDDD"/>
<path d="M12.0521 250.943L11.6627 251.961L12.5104 252.645L11.422 252.59L11.0327 253.607L10.7494 252.555L9.66099 252.499L10.5743 251.905L10.291 250.852L11.1388 251.537L12.0521 250.943Z" fill="#DDDDDD"/>
<path d="M31.0521 277.943L30.6627 278.961L31.5104 279.645L30.422 279.59L30.0327 280.607L29.7494 279.555L28.661 279.499L29.5743 278.905L29.291 277.852L30.1388 278.537L31.0521 277.943Z" fill="#DDDDDD"/>
<path d="M62.0521 275.943L61.6627 276.961L62.5104 277.645L61.422 277.59L61.0327 278.607L60.7494 277.555L59.661 277.499L60.5743 276.905L60.291 275.852L61.1388 276.537L62.0521 275.943Z" fill="#DDDDDD"/>
<path d="M93.0521 273.943L92.6627 274.961L93.5104 275.645L92.422 275.59L92.0327 276.607L91.7494 275.555L90.661 275.499L91.5743 274.905L91.291 273.852L92.1388 274.537L93.0521 273.943Z" fill="#DDDDDD"/>
<path d="M124.052 271.943L123.663 272.961L124.51 273.645L123.422 273.59L123.033 274.607L122.749 273.555L121.661 273.499L122.574 272.905L122.291 271.852L123.139 272.537L124.052 271.943Z" fill="#DDDDDD"/>
<path d="M108.052 301.943L107.663 302.961L108.51 303.645L107.422 303.59L107.033 304.607L106.749 303.555L105.661 303.499L106.574 302.905L106.291 301.852L107.139 302.537L108.052 301.943Z" fill="#DDDDDD"/>
<path d="M164.052 277.943L163.663 278.961L164.51 279.645L163.422 279.59L163.033 280.607L162.749 279.555L161.661 279.499L162.574 278.905L162.291 277.852L163.139 278.537L164.052 277.943Z" fill="#DDDDDD"/>
<path d="M214.052 256.943L213.663 257.961L214.51 258.645L213.422 258.59L213.033 259.607L212.749 258.555L211.661 258.499L212.574 257.905L212.291 256.852L213.139 257.537L214.052 256.943Z" fill="#DDDDDD"/>
<path d="M266.052 252.943L265.663 253.961L266.51 254.645L265.422 254.59L265.033 255.607L264.749 254.555L263.661 254.499L264.574 253.905L264.291 252.852L265.139 253.537L266.052 252.943Z" fill="#DDDDDD"/>
<path d="M295.052 271.943L294.663 272.961L295.51 273.645L294.422 273.59L294.033 274.607L293.749 273.555L292.661 273.499L293.574 272.905L293.291 271.852L294.139 272.537L295.052 271.943Z" fill="#DDDDDD"/>
<path d="M316.052 297.943L315.663 298.961L316.51 299.645L315.422 299.59L315.033 300.607L314.749 299.555L313.661 299.499L314.574 298.905L314.291 297.852L315.139 298.537L316.052 297.943Z" fill="#DDDDDD"/>
<path d="M336.052 286.943L335.663 287.961L336.51 288.645L335.422 288.59L335.033 289.607L334.749 288.555L333.661 288.499L334.574 287.905L334.291 286.852L335.139 287.537L336.052 286.943Z" fill="#DDDDDD"/>
<path d="M251.052 269.943L250.663 270.961L251.51 271.645L250.422 271.59L250.033 272.607L249.749 271.555L248.661 271.499L249.574 270.905L249.291 269.852L250.139 270.537L251.052 269.943Z" fill="#DDDDDD"/>
<path d="M197.052 275.943L196.663 276.961L197.51 277.645L196.422 277.59L196.033 278.607L195.749 277.555L194.661 277.499L195.574 276.905L195.291 275.852L196.139 276.537L197.052 275.943Z" fill="#DDDDDD"/>
<path d="M242.052 290.943L241.663 291.961L242.51 292.645L241.422 292.59L241.033 293.607L240.749 292.555L239.661 292.499L240.574 291.905L240.291 290.852L241.139 291.537L242.052 290.943Z" fill="#DDDDDD"/>
<path d="M212.052 303.943L211.663 304.961L212.51 305.645L211.422 305.59L211.033 306.607L210.749 305.555L209.661 305.499L210.574 304.905L210.291 303.852L211.139 304.537L212.052 303.943Z" fill="#DDDDDD"/>
<path d="M172.052 311.943L171.663 312.961L172.51 313.645L171.422 313.59L171.033 314.607L170.749 313.555L169.661 313.499L170.574 312.905L170.291 311.852L171.139 312.537L172.052 311.943Z" fill="#DDDDDD"/>
<path d="M136.052 325.943L135.663 326.961L136.51 327.645L135.422 327.59L135.033 328.607L134.749 327.555L133.661 327.499L134.574 326.905L134.291 325.852L135.139 326.537L136.052 325.943Z" fill="#DDDDDD"/>
<path d="M92.0521 327.943L91.6627 328.961L92.5104 329.645L91.422 329.59L91.0327 330.607L90.7494 329.555L89.661 329.499L90.5743 328.905L90.291 327.852L91.1388 328.537L92.0521 327.943Z" fill="#DDDDDD"/>
<path d="M52.0521 335.943L51.6627 336.961L52.5104 337.645L51.422 337.59L51.0327 338.607L50.7494 337.555L49.661 337.499L50.5743 336.905L50.291 335.852L51.1388 336.537L52.0521 335.943Z" fill="#DDDDDD"/>
<path d="M14.0521 311.943L13.6627 312.961L14.5104 313.645L13.422 313.59L13.0327 314.607L12.7494 313.555L11.661 313.499L12.5743 312.905L12.291 311.852L13.1388 312.537L14.0521 311.943Z" fill="#DDDDDD"/>
<path d="M48.0521 299.943L47.6627 300.961L48.5104 301.645L47.422 301.59L47.0327 302.607L46.7494 301.555L45.661 301.499L46.5743 300.905L46.291 299.852L47.1388 300.537L48.0521 299.943Z" fill="#DDDDDD"/>
<path d="M76.0521 309.943L75.6627 310.961L76.5104 311.645L75.422 311.59L75.0327 312.607L74.7494 311.555L73.661 311.499L74.5743 310.905L74.291 309.852L75.1388 310.537L76.0521 309.943Z" fill="#DDDDDD"/>
<path d="M116.052 346.943L115.663 347.961L116.51 348.645L115.422 348.59L115.033 349.607L114.749 348.555L113.661 348.499L114.574 347.905L114.291 346.852L115.139 347.537L116.052 346.943Z" fill="#DDDDDD"/>
<path d="M146.052 303.943L145.663 304.961L146.51 305.645L145.422 305.59L145.033 306.607L144.749 305.555L143.661 305.499L144.574 304.905L144.291 303.852L145.139 304.537L146.052 303.943Z" fill="#DDDDDD"/>
<path d="M164.052 335.943L163.663 336.961L164.51 337.645L163.422 337.59L163.033 338.607L162.749 337.555L161.661 337.499L162.574 336.905L162.291 335.852L163.139 336.537L164.052 335.943Z" fill="#DDDDDD"/>
<path d="M199.052 333.943L198.663 334.961L199.51 335.645L198.422 335.59L198.033 336.607L197.749 335.555L196.661 335.499L197.574 334.905L197.291 333.852L198.139 334.537L199.052 333.943Z" fill="#DDDDDD"/>
<path d="M234.052 331.943L233.663 332.961L234.51 333.645L233.422 333.59L233.033 334.607L232.749 333.555L231.661 333.499L232.574 332.905L232.291 331.852L233.139 332.537L234.052 331.943Z" fill="#DDDDDD"/>
<path d="M276.052 288.943L275.663 289.961L276.51 290.645L275.422 290.59L275.033 291.607L274.749 290.555L273.661 290.499L274.574 289.905L274.291 288.852L275.139 289.537L276.052 288.943Z" fill="#DDDDDD"/>
<path d="M258.052 313.943L257.663 314.961L258.51 315.645L257.422 315.59L257.033 316.607L256.749 315.555L255.661 315.499L256.574 314.905L256.291 313.852L257.139 314.537L258.052 313.943Z" fill="#DDDDDD"/>
<path d="M291.052 321.943L290.663 322.961L291.51 323.645L290.422 323.59L290.033 324.607L289.749 323.555L288.661 323.499L289.574 322.905L289.291 321.852L290.139 322.537L291.052 321.943Z" fill="#DDDDDD"/>
<path d="M324.052 329.943L323.663 330.961L324.51 331.645L323.422 331.59L323.033 332.607L322.749 331.555L321.661 331.499L322.574 330.905L322.291 329.852L323.139 330.537L324.052 329.943Z" fill="#DDDDDD"/>
<path d="M348.052 311.943L347.663 312.961L348.51 313.645L347.422 313.59L347.033 314.607L346.749 313.555L345.661 313.499L346.574 312.905L346.291 311.852L347.139 312.537L348.052 311.943Z" fill="#DDDDDD"/>
<path d="M152.052 368.943L151.663 369.961L152.51 370.645L151.422 370.59L151.033 371.607L150.749 370.555L149.661 370.499L150.574 369.905L150.291 368.852L151.139 369.537L152.052 368.943Z" fill="#DDDDDD"/>
<path d="M23.0521 357.943L22.6627 358.961L23.5104 359.645L22.422 359.59L22.0327 360.607L21.7494 359.555L20.661 359.499L21.5743 358.905L21.291 357.852L22.1388 358.537L23.0521 357.943Z" fill="#DDDDDD"/>
<path d="M40.0521 382.943L39.6627 383.961L40.5104 384.645L39.422 384.59L39.0327 385.607L38.7494 384.555L37.661 384.499L38.5743 383.905L38.291 382.852L39.1388 383.537L40.0521 382.943Z" fill="#DDDDDD"/>
<path d="M57.0521 407.943L56.6627 408.961L57.5104 409.645L56.422 409.59L56.0327 410.607L55.7494 409.555L54.661 409.499L55.5743 408.905L55.291 407.852L56.1388 408.537L57.0521 407.943Z" fill="#DDDDDD"/>
<path d="M86.0521 411.943L85.6627 412.961L86.5104 413.645L85.422 413.59L85.0327 414.607L84.7494 413.555L83.661 413.499L84.5743 412.905L84.291 411.852L85.1388 412.537L86.0521 411.943Z" fill="#DDDDDD"/>
<path d="M75.0521 359.943L74.6627 360.961L75.5104 361.645L74.422 361.59L74.0327 362.607L73.7494 361.555L72.661 361.499L73.5743 360.905L73.291 359.852L74.1388 360.537L75.0521 359.943Z" fill="#DDDDDD"/>
<path d="M118.052 389.943L117.663 390.961L118.51 391.645L117.422 391.59L117.033 392.607L116.749 391.555L115.661 391.499L116.574 390.905L116.291 389.852L117.139 390.537L118.052 389.943Z" fill="#DDDDDD"/>
<path d="M161.052 419.943L160.663 420.961L161.51 421.645L160.422 421.59L160.033 422.607L159.749 421.555L158.661 421.499L159.574 420.905L159.291 419.852L160.139 420.537L161.052 419.943Z" fill="#DDDDDD"/>
<path d="M189.052 396.943L188.663 397.961L189.51 398.645L188.422 398.59L188.033 399.607L187.749 398.555L186.661 398.499L187.574 397.905L187.291 396.852L188.139 397.537L189.052 396.943Z" fill="#DDDDDD"/>
<path d="M199.052 359.943L198.663 360.961L199.51 361.645L198.422 361.59L198.033 362.607L197.749 361.555L196.661 361.499L197.574 360.905L197.291 359.852L198.139 360.537L199.052 359.943Z" fill="#DDDDDD"/>
<path d="M238.052 364.943L237.663 365.961L238.51 366.645L237.422 366.59L237.033 367.607L236.749 366.555L235.661 366.499L236.574 365.905L236.291 364.852L237.139 365.537L238.052 364.943Z" fill="#DDDDDD"/>
<path d="M277.052 369.943L276.663 370.961L277.51 371.645L276.422 371.59L276.033 372.607L275.749 371.555L274.661 371.499L275.574 370.905L275.291 369.852L276.139 370.537L277.052 369.943Z" fill="#DDDDDD"/>
<path d="M316.052 374.943L315.663 375.961L316.51 376.645L315.422 376.59L315.033 377.607L314.749 376.555L313.661 376.499L314.574 375.905L314.291 374.852L315.139 375.537L316.052 374.943Z" fill="#DDDDDD"/>
<path d="M275.052 342.943L274.663 343.961L275.51 344.645L274.422 344.59L274.033 345.607L273.749 344.555L272.661 344.499L273.574 343.905L273.291 342.852L274.139 343.537L275.052 342.943Z" fill="#DDDDDD"/>
<path d="M223.052 385.943L222.663 386.961L223.51 387.645L222.422 387.59L222.033 388.607L221.749 387.555L220.661 387.499L221.574 386.905L221.291 385.852L222.139 386.537L223.052 385.943Z" fill="#DDDDDD"/>
<path d="M295.052 396.943L294.663 397.961L295.51 398.645L294.422 398.59L294.033 399.607L293.749 398.555L292.661 398.499L293.574 397.905L293.291 396.852L294.139 397.537L295.052 396.943Z" fill="#DDDDDD"/>
<path d="M336.052 403.943L335.663 404.961L336.51 405.645L335.422 405.59L335.033 406.607L334.749 405.555L333.661 405.499L334.574 404.905L334.291 403.852L335.139 404.537L336.052 403.943Z" fill="#DDDDDD"/>
<path d="M249.052 407.943L248.663 408.961L249.51 409.645L248.422 409.59L248.033 410.607L247.749 409.555L246.661 409.499L247.574 408.905L247.291 407.852L248.139 408.537L249.052 407.943Z" fill="#DDDDDD"/>
<path d="M212.052 417.943L211.663 418.961L212.51 419.645L211.422 419.59L211.033 420.607L210.749 419.555L209.661 419.499L210.574 418.905L210.291 417.852L211.139 418.537L212.052 417.943Z" fill="#DDDDDD"/>
<path d="M314.052 431.943L313.663 432.961L314.51 433.645L313.422 433.59L313.033 434.607L312.749 433.555L311.661 433.499L312.574 432.905L312.291 431.852L313.139 432.537L314.052 431.943Z" fill="#DDDDDD"/>
<path d="M273.052 429.943L272.663 430.961L273.51 431.645L272.422 431.59L272.033 432.607L271.749 431.555L270.661 431.499L271.574 430.905L271.291 429.852L272.139 430.537L273.052 429.943Z" fill="#DDDDDD"/>
<path d="M181.052 437.943L180.663 438.961L181.51 439.645L180.422 439.59L180.033 440.607L179.749 439.555L178.661 439.499L179.574 438.905L179.291 437.852L180.139 438.537L181.052 437.943Z" fill="#DDDDDD"/>
<path d="M120.052 445.943L119.663 446.961L120.51 447.645L119.422 447.59L119.033 448.607L118.749 447.555L117.661 447.499L118.574 446.905L118.291 445.852L119.139 446.537L120.052 445.943Z" fill="#DDDDDD"/>
<path d="M19.0521 427.943L18.6627 428.961L19.5104 429.645L18.422 429.59L18.0327 430.607L17.7494 429.555L16.661 429.499L17.5743 428.905L17.291 427.852L18.1388 428.537L19.0521 427.943Z" fill="#DDDDDD"/>
<path d="M40.0521 441.943L39.6627 442.961L40.5104 443.645L39.422 443.59L39.0327 444.607L38.7494 443.555L37.661 443.499L38.5743 442.905L38.291 441.852L39.1388 442.537L40.0521 441.943Z" fill="#DDDDDD"/>
<path d="M74.0521 461.943L73.6627 462.961L74.5104 463.645L73.422 463.59L73.0327 464.607L72.7494 463.555L71.661 463.499L72.5743 462.905L72.291 461.852L73.1388 462.537L74.0521 461.943Z" fill="#DDDDDD"/>
<path d="M104.052 481.943L103.663 482.961L104.51 483.645L103.422 483.59L103.033 484.607L102.749 483.555L101.661 483.499L102.574 482.905L102.291 481.852L103.139 482.537L104.052 481.943Z" fill="#DDDDDD"/>
<path d="M148.052 470.943L147.663 471.961L148.51 472.645L147.422 472.59L147.033 473.607L146.749 472.555L145.661 472.499L146.574 471.905L146.291 470.852L147.139 471.537L148.052 470.943Z" fill="#DDDDDD"/>
<path d="M206.052 472.943L205.663 473.961L206.51 474.645L205.422 474.59L205.033 475.607L204.749 474.555L203.661 474.499L204.574 473.905L204.291 472.852L205.139 473.537L206.052 472.943Z" fill="#DDDDDD"/>
<path d="M221.052 492.943L220.663 493.961L221.51 494.645L220.422 494.59L220.033 495.607L219.749 494.555L218.661 494.499L219.574 493.905L219.291 492.852L220.139 493.537L221.052 492.943Z" fill="#DDDDDD"/>
<path d="M206.052 513.943L205.663 514.961L206.51 515.645L205.422 515.59L205.033 516.607L204.749 515.555L203.661 515.499L204.574 514.905L204.291 513.852L205.139 514.537L206.052 513.943Z" fill="#DDDDDD"/>
<path d="M169.052 502.943L168.663 503.961L169.51 504.645L168.422 504.59L168.033 505.607L167.749 504.555L166.661 504.499L167.574 503.905L167.291 502.852L168.139 503.537L169.052 502.943Z" fill="#DDDDDD"/>
<path d="M131.052 496.943L130.663 497.961L131.51 498.645L130.422 498.59L130.033 499.607L129.749 498.555L128.661 498.499L129.574 497.905L129.291 496.852L130.139 497.537L131.052 496.943Z" fill="#DDDDDD"/>
<path d="M53.0521 485.943L52.6627 486.961L53.5104 487.645L52.422 487.59L52.0327 488.607L51.7494 487.555L50.661 487.499L51.5743 486.905L51.291 485.852L52.1388 486.537L53.0521 485.943Z" fill="#DDDDDD"/>
<path d="M17.0521 472.943L16.6627 473.961L17.5104 474.645L16.422 474.59L16.0327 475.607L15.7494 474.555L14.661 474.499L15.5743 473.905L15.291 472.852L16.1388 473.537L17.0521 472.943Z" fill="#DDDDDD"/>
<path d="M21.0521 511.943L20.6627 512.961L21.5104 513.645L20.422 513.59L20.0327 514.607L19.7494 513.555L18.661 513.499L19.5743 512.905L19.291 511.852L20.1388 512.537L21.0521 511.943Z" fill="#DDDDDD"/>
<path d="M46.0521 523.943L45.6627 524.961L46.5104 525.645L45.422 525.59L45.0327 526.607L44.7494 525.555L43.661 525.499L44.5743 524.905L44.291 523.852L45.1388 524.537L46.0521 523.943Z" fill="#DDDDDD"/>
<path d="M81.0521 529.943L80.6627 530.961L81.5104 531.645L80.422 531.59L80.0327 532.607L79.7494 531.555L78.661 531.499L79.5743 530.905L79.291 529.852L80.1388 530.537L81.0521 529.943Z" fill="#DDDDDD"/>
<path d="M85.0521 504.943L84.6627 505.961L85.5104 506.645L84.422 506.59L84.0327 507.607L83.7494 506.555L82.661 506.499L83.5743 505.905L83.291 504.852L84.1388 505.537L85.0521 504.943Z" fill="#DDDDDD"/>
<path d="M118.052 540.943L117.663 541.961L118.51 542.645L117.422 542.59L117.033 543.607L116.749 542.555L115.661 542.499L116.574 541.905L116.291 540.852L117.139 541.537L118.052 540.943Z" fill="#DDDDDD"/>
<path d="M159.052 527.943L158.663 528.961L159.51 529.645L158.422 529.59L158.033 530.607L157.749 529.555L156.661 529.499L157.574 528.905L157.291 527.852L158.139 528.537L159.052 527.943Z" fill="#DDDDDD"/>
<path d="M202.052 536.943L201.663 537.961L202.51 538.645L201.422 538.59L201.033 539.607L200.749 538.555L199.661 538.499L200.574 537.905L200.291 536.852L201.139 537.537L202.052 536.943Z" fill="#DDDDDD"/>
<path d="M250.052 527.943L249.663 528.961L250.51 529.645L249.422 529.59L249.033 530.607L248.749 529.555L247.661 529.499L248.574 528.905L248.291 527.852L249.139 528.537L250.052 527.943Z" fill="#DDDDDD"/>
<path d="M330.052 509.943L329.663 510.961L330.51 511.645L329.422 511.59L329.033 512.607L328.749 511.555L327.661 511.499L328.574 510.905L328.291 509.852L329.139 510.537L330.052 509.943Z" fill="#DDDDDD"/>
<path d="M326.052 529.943L325.663 530.961L326.51 531.645L325.422 531.59L325.033 532.607L324.749 531.555L323.661 531.499L324.574 530.905L324.291 529.852L325.139 530.537L326.052 529.943Z" fill="#DDDDDD"/>
<path d="M297.052 520.943L296.663 521.961L297.51 522.645L296.422 522.59L296.033 523.607L295.749 522.555L294.661 522.499L295.574 521.905L295.291 520.852L296.139 521.537L297.052 520.943Z" fill="#DDDDDD"/>
<path d="M272.052 477.943L271.663 478.961L272.51 479.645L271.422 479.59L271.033 480.607L270.749 479.555L269.661 479.499L270.574 478.905L270.291 477.852L271.139 478.537L272.052 477.943Z" fill="#DDDDDD"/>
<path d="M252.052 462.943L251.663 463.961L252.51 464.645L251.422 464.59L251.033 465.607L250.749 464.555L249.661 464.499L250.574 463.905L250.291 462.852L251.139 463.537L252.052 462.943Z" fill="#DDDDDD"/>
<path d="M304.052 458.943L303.663 459.961L304.51 460.645L303.422 460.59L303.033 461.607L302.749 460.555L301.661 460.499L302.574 459.905L302.291 458.852L303.139 459.537L304.052 458.943Z" fill="#DDDDDD"/>
<path d="M344.052 441.943L343.663 442.961L344.51 443.645L343.422 443.59L343.033 444.607L342.749 443.555L341.661 443.499L342.574 442.905L342.291 441.852L343.139 442.537L344.052 441.943Z" fill="#DDDDDD"/>
<path d="M328.052 483.943L327.663 484.961L328.51 485.645L327.422 485.59L327.033 486.607L326.749 485.555L325.661 485.499L326.574 484.905L326.291 483.852L327.139 484.537L328.052 483.943Z" fill="#DDDDDD"/>
<path d="M299.052 496.943L298.663 497.961L299.51 498.645L298.422 498.59L298.033 499.607L297.749 498.555L296.661 498.499L297.574 497.905L297.291 496.852L298.139 497.537L299.052 496.943Z" fill="#DDDDDD"/>
<path d="M270.052 509.943L269.663 510.961L270.51 511.645L269.422 511.59L269.033 512.607L268.749 511.555L267.661 511.499L268.574 510.905L268.291 509.852L269.139 510.537L270.052 509.943Z" fill="#DDDDDD"/>
<path d="M219.052 447.943L218.663 448.961L219.51 449.645L218.422 449.59L218.033 450.607L217.749 449.555L216.661 449.499L217.574 448.905L217.291 447.852L218.139 448.537L219.052 447.943Z" fill="#DDDDDD"/>
<path d="M20.0521 219.943L19.6627 220.961L20.5104 221.645L19.422 221.59L19.0327 222.607L18.7494 221.555L17.661 221.499L18.5743 220.905L18.291 219.852L19.1388 220.537L20.0521 219.943Z" fill="#DDDDDD"/>
<path d="M46.0521 231.943L45.6627 232.961L46.5104 233.645L45.422 233.59L45.0327 234.607L44.7494 233.555L43.661 233.499L44.5743 232.905L44.291 231.852L45.1388 232.537L46.0521 231.943Z" fill="#DDDDDD"/>
<path d="M280.052 227.943L279.663 228.961L280.51 229.645L279.422 229.59L279.033 230.607L278.749 229.555L277.661 229.499L278.574 228.905L278.291 227.852L279.139 228.537L280.052 227.943Z" fill="#DDDDDD"/>
<path d="M305.052 242.943L304.663 243.961L305.51 244.645L304.422 244.59L304.033 245.607L303.749 244.555L302.661 244.499L303.574 243.905L303.291 242.852L304.139 243.537L305.052 242.943Z" fill="#DDDDDD"/>
<path d="M342.052 261.943L341.663 262.961L342.51 263.645L341.422 263.59L341.033 264.607L340.749 263.555L339.661 263.499L340.574 262.905L340.291 261.852L341.139 262.537L342.052 261.943Z" fill="#DDDDDD"/>
<path d="M240.052 240.943L239.663 241.961L240.51 242.645L239.422 242.59L239.033 243.607L238.749 242.555L237.661 242.499L238.574 241.905L238.291 240.852L239.139 241.537L240.052 240.943Z" fill="#DDDDDD"/>
<path d="M81.0521 215.943L80.6627 216.961L81.5104 217.645L80.422 217.59L80.0327 218.607L79.7494 217.555L78.661 217.499L79.5743 216.905L79.291 215.852L80.1388 216.537L81.0521 215.943Z" fill="#DDDDDD"/>
<defs>
<linearGradient id="paint0_linear" x1="245.5" y1="0" x2="245.5" y2="986" gradientUnits="userSpaceOnUse">
<stop stop-color="#00B2D9"/>
<stop offset="1" stop-color="#00FFE0"/>
</linearGradient>
</defs>
</svg>
