<svg width="363" height="263" viewBox="0 0 363 263" fill="none" xmlns="http://www.w3.org/2000/svg">
<rect width="363" height="263" fill="#F7F7F7"/>
<rect width="363" height="263" fill="url(#paint0_linear)"/>
<path d="M25.2482 4.45215L24.3291 5.03788L24.6022 6.09293L23.7611 5.39989L22.8421 5.98562L23.2413 4.97156L22.4003 4.27852L23.4881 4.34484L23.8873 3.33078L24.1604 4.38583L25.2482 4.45215Z" fill="#DDDDDD"/>
<path d="M17.0081 18.1354L16.4436 19.0676L17.1558 19.8926L16.0947 19.6438L15.5303 20.576L15.439 19.4901L14.3779 19.2413L15.3826 18.8189L15.2913 17.7329L16.0034 18.5578L17.0081 18.1354Z" fill="#DDDDDD"/>
<path d="M51.1072 1.66007L50.9535 2.73899L51.9322 3.21856L50.8585 3.4058L50.7049 4.48473L50.195 3.52153L49.1214 3.70877L49.8799 2.92624L49.3701 1.96303L50.3487 2.4426L51.1072 1.66007Z" fill="#DDDDDD"/>
<path d="M103.107 16.6601L102.954 17.739L103.932 18.2186L102.859 18.4058L102.705 19.4847L102.195 18.5215L101.121 18.7088L101.88 17.9262L101.37 16.963L102.349 17.4426L103.107 16.6601Z" fill="#DDDDDD"/>
<path d="M118.34 5.12294L119.107 5.8977L120.08 5.40818L119.58 6.37653L120.347 7.15129L119.271 6.975L118.771 7.94335L118.607 6.86605L117.531 6.68976L118.505 6.20024L118.34 5.12294Z" fill="#DDDDDD"/>
<path d="M93.3402 2.12294L94.1066 2.8977L95.0803 2.40818L94.5803 3.37653L95.3467 4.15129L94.2713 3.975L93.7713 4.94335L93.6066 3.86605L92.5312 3.68976L93.5048 3.20024L93.3402 2.12294Z" fill="#DDDDDD"/>
<path d="M70.167 4.25388L69.4855 5.10426L70.0836 6.01526L69.0642 5.62983L68.3826 6.48021L68.4342 5.39162L67.4148 5.00619L68.4661 4.71883L68.5176 3.63024L69.1158 4.54124L70.167 4.25388Z" fill="#DDDDDD"/>
<path d="M61.3696 20.7841L61.1149 21.8437L62.044 22.4134L60.9575 22.4986L60.7028 23.5582L60.286 22.5513L59.1995 22.6365L60.0284 21.9289L59.6116 20.922L60.5407 21.4916L61.3696 20.7841Z" fill="#DDDDDD"/>
<path d="M45.268 15.3806L44.4456 16.0958L44.8716 17.0989L43.9374 16.5378L43.115 17.2529L43.36 16.191L42.4257 15.6298L43.5114 15.5347L43.7563 14.4727L44.1823 15.4758L45.268 15.3806Z" fill="#DDDDDD"/>
<path d="M118.073 27.6189L117.027 27.9246L116.994 29.0139L116.38 28.1135L115.334 28.4191L116.001 27.557L115.387 26.6565L116.413 27.0241L117.08 26.162L117.047 27.2513L118.073 27.6189Z" fill="#DDDDDD"/>
<path d="M89.2126 30.2974L88.4852 31.1089L89.0322 32.0515L88.0356 31.6104L87.3082 32.4219L87.4197 31.3378L86.4231 30.8968L87.4886 30.6678L87.6001 29.5837L88.1471 30.5263L89.2126 30.2974Z" fill="#DDDDDD"/>
<path d="M158.393 11.2137L157.312 11.353L157.111 12.4241L156.644 11.4392L155.564 11.5785L156.356 10.8304L155.89 9.84553L156.846 10.3681L157.638 9.62009L157.437 10.6911L158.393 11.2137Z" fill="#DDDDDD"/>
<path d="M156.641 30.8726L155.553 30.8023L155.15 31.8149L154.881 30.7588L153.794 30.6886L154.715 30.1062L154.445 29.0501L155.284 29.7462L156.205 29.1639L155.802 30.1765L156.641 30.8726Z" fill="#DDDDDD"/>
<path d="M177.085 4.49713L176.071 4.89732L176.139 5.98505L175.445 5.14465L174.431 5.54484L175.016 4.62526L174.322 3.78486L175.378 4.05692L175.962 3.13734L176.03 4.22507L177.085 4.49713Z" fill="#DDDDDD"/>
<path d="M60.1688 37.2554L59.4856 38.1045L60.082 39.0167L59.0634 38.6293L58.3802 39.4784L58.4338 38.3899L57.4152 38.0025L58.467 37.7172L58.5206 36.6287L59.117 37.5408L60.1688 37.2554Z" fill="#DDDDDD"/>
<path d="M84.4575 15.3561L83.3719 15.4527L83.1284 16.5149L82.7011 15.5124L81.6155 15.609L82.437 14.8928L82.0096 13.8902L82.9446 14.4501L83.7661 13.7339L83.5225 14.7962L84.4575 15.3561Z" fill="#DDDDDD"/>
<path d="M140.68 4.94263L140.291 5.96051L141.139 6.64538L140.05 6.5896L139.661 7.60748L139.378 6.55512L138.289 6.49934L139.203 5.90473L138.919 4.85238L139.767 5.53724L140.68 4.94263Z" fill="#DDDDDD"/>
<path d="M175.68 39.9426L175.291 40.9605L176.139 41.6454L175.05 41.5896L174.661 42.6075L174.378 41.5551L173.289 41.4993L174.203 40.9047L173.919 39.8524L174.767 40.5372L175.68 39.9426Z" fill="#DDDDDD"/>
<path d="M190.052 49.9426L189.663 50.9605L190.51 51.6454L189.422 51.5896L189.033 52.6075L188.749 51.5551L187.661 51.4993L188.574 50.9047L188.291 49.8524L189.139 50.5372L190.052 49.9426Z" fill="#DDDDDD"/>
<path d="M199.052 30.9426L198.663 31.9605L199.51 32.6454L198.422 32.5896L198.033 33.6075L197.749 32.5551L196.661 32.4993L197.574 31.9047L197.291 30.8524L198.139 31.5372L199.052 30.9426Z" fill="#DDDDDD"/>
<path d="M194.052 15.9426L193.663 16.9605L194.51 17.6454L193.422 17.5896L193.033 18.6075L192.749 17.5551L191.661 17.4993L192.574 16.9047L192.291 15.8524L193.139 16.5372L194.052 15.9426Z" fill="#DDDDDD"/>
<path d="M219.052 6.94263L218.663 7.96051L219.51 8.64538L218.422 8.5896L218.033 9.60748L217.749 8.55512L216.661 8.49934L217.574 7.90473L217.291 6.85238L218.139 7.53724L219.052 6.94263Z" fill="#DDDDDD"/>
<path d="M226.052 27.9426L225.663 28.9605L226.51 29.6454L225.422 29.5896L225.033 30.6075L224.749 29.5551L223.661 29.4993L224.574 28.9047L224.291 27.8524L225.139 28.5372L226.052 27.9426Z" fill="#DDDDDD"/>
<path d="M230.052 51.9426L229.663 52.9605L230.51 53.6454L229.422 53.5896L229.033 54.6075L228.749 53.5551L227.661 53.4993L228.574 52.9047L228.291 51.8524L229.139 52.5372L230.052 51.9426Z" fill="#DDDDDD"/>
<path d="M211.052 65.9426L210.663 66.9605L211.51 67.6454L210.422 67.5896L210.033 68.6075L209.749 67.5551L208.661 67.4993L209.574 66.9047L209.291 65.8524L210.139 66.5372L211.052 65.9426Z" fill="#DDDDDD"/>
<path d="M192.052 79.9426L191.663 80.9605L192.51 81.6454L191.422 81.5896L191.033 82.6075L190.749 81.5551L189.661 81.4993L190.574 80.9047L190.291 79.8524L191.139 80.5372L192.052 79.9426Z" fill="#DDDDDD"/>
<path d="M170.052 65.9426L169.663 66.9605L170.51 67.6454L169.422 67.5896L169.033 68.6075L168.749 67.5551L167.661 67.4993L168.574 66.9047L168.291 65.8524L169.139 66.5372L170.052 65.9426Z" fill="#DDDDDD"/>
<path d="M126.052 53.9426L125.663 54.9605L126.51 55.6454L125.422 55.5896L125.033 56.6075L124.749 55.5551L123.661 55.4993L124.574 54.9047L124.291 53.8524L125.139 54.5372L126.052 53.9426Z" fill="#DDDDDD"/>
<path d="M91.0521 57.9426L90.6627 58.9605L91.5104 59.6454L90.422 59.5896L90.0327 60.6075L89.7494 59.5551L88.661 59.4993L89.5743 58.9047L89.291 57.8524L90.1388 58.5372L91.0521 57.9426Z" fill="#DDDDDD"/>
<path d="M56.0521 61.9426L55.6627 62.9605L56.5104 63.6454L55.422 63.5896L55.0327 64.6075L54.7494 63.5551L53.661 63.4993L54.5743 62.9047L54.291 61.8524L55.1388 62.5372L56.0521 61.9426Z" fill="#DDDDDD"/>
<path d="M19.0521 53.9426L18.6627 54.9605L19.5104 55.6454L18.422 55.5896L18.0327 56.6075L17.7494 55.5551L16.661 55.4993L17.5743 54.9047L17.291 53.8524L18.1388 54.5372L19.0521 53.9426Z" fill="#DDDDDD"/>
<path d="M9.05206 75.9426L8.66268 76.9605L9.51042 77.6454L8.42203 77.5896L8.03265 78.6075L7.74937 77.5551L6.66099 77.4993L7.5743 76.9047L7.29102 75.8524L8.13875 76.5372L9.05206 75.9426Z" fill="#DDDDDD"/>
<path d="M38.0521 81.9426L37.6627 82.9605L38.5104 83.6454L37.422 83.5896L37.0327 84.6075L36.7494 83.5551L35.661 83.4993L36.5743 82.9047L36.291 81.8524L37.1388 82.5372L38.0521 81.9426Z" fill="#DDDDDD"/>
<path d="M80.0521 75.9426L79.6627 76.9605L80.5104 77.6454L79.422 77.5896L79.0327 78.6075L78.7494 77.5551L77.661 77.4993L78.5743 76.9047L78.291 75.8524L79.1388 76.5372L80.0521 75.9426Z" fill="#DDDDDD"/>
<path d="M116.052 77.9426L115.663 78.9605L116.51 79.6454L115.422 79.5896L115.033 80.6075L114.749 79.5551L113.661 79.4993L114.574 78.9047L114.291 77.8524L115.139 78.5372L116.052 77.9426Z" fill="#DDDDDD"/>
<path d="M145.052 73.9426L144.663 74.9605L145.51 75.6454L144.422 75.5896L144.033 76.6075L143.749 75.5551L142.661 75.4993L143.574 74.9047L143.291 73.8524L144.139 74.5372L145.052 73.9426Z" fill="#DDDDDD"/>
<path d="M162.052 88.9426L161.663 89.9605L162.51 90.6454L161.422 90.5896L161.033 91.6075L160.749 90.5551L159.661 90.4993L160.574 89.9047L160.291 88.8524L161.139 89.5372L162.052 88.9426Z" fill="#DDDDDD"/>
<path d="M211.052 84.9426L210.663 85.9605L211.51 86.6454L210.422 86.5896L210.033 87.6075L209.749 86.5551L208.661 86.4993L209.574 85.9047L209.291 84.8524L210.139 85.5372L211.052 84.9426Z" fill="#DDDDDD"/>
<path d="M230.052 73.9426L229.663 74.9605L230.51 75.6454L229.422 75.5896L229.033 76.6075L228.749 75.5551L227.661 75.4993L228.574 74.9047L228.291 73.8524L229.139 74.5372L230.052 73.9426Z" fill="#DDDDDD"/>
<path d="M246.052 63.9426L245.663 64.9605L246.51 65.6454L245.422 65.5896L245.033 66.6075L244.749 65.5551L243.661 65.4993L244.574 64.9047L244.291 63.8524L245.139 64.5372L246.052 63.9426Z" fill="#DDDDDD"/>
<path d="M242.052 39.9426L241.663 40.9605L242.51 41.6454L241.422 41.5896L241.033 42.6075L240.749 41.5551L239.661 41.4993L240.574 40.9047L240.291 39.8524L241.139 40.5372L242.052 39.9426Z" fill="#DDDDDD"/>
<path d="M238.052 15.9426L237.663 16.9605L238.51 17.6454L237.422 17.5896L237.033 18.6075L236.749 17.5551L235.661 17.4993L236.574 16.9047L236.291 15.8524L237.139 16.5372L238.052 15.9426Z" fill="#DDDDDD"/>
<path d="M252.052 4.94263L251.663 5.96051L252.51 6.64538L251.422 6.5896L251.033 7.60748L250.749 6.55512L249.661 6.49934L250.574 5.90473L250.291 4.85238L251.139 5.53724L252.052 4.94263Z" fill="#DDDDDD"/>
<path d="M259.052 22.9426L258.663 23.9605L259.51 24.6454L258.422 24.5896L258.033 25.6075L257.749 24.5551L256.661 24.4993L257.574 23.9047L257.291 22.8524L258.139 23.5372L259.052 22.9426Z" fill="#DDDDDD"/>
<path d="M266.052 40.9426L265.663 41.9605L266.51 42.6454L265.422 42.5896L265.033 43.6075L264.749 42.5551L263.661 42.4993L264.574 41.9047L264.291 40.8524L265.139 41.5372L266.052 40.9426Z" fill="#DDDDDD"/>
<path d="M270.052 61.9426L269.663 62.9605L270.51 63.6454L269.422 63.5896L269.033 64.6075L268.749 63.5551L267.661 63.4993L268.574 62.9047L268.291 61.8524L269.139 62.5372L270.052 61.9426Z" fill="#DDDDDD"/>
<path d="M257.052 84.9426L256.663 85.9605L257.51 86.6454L256.422 86.5896L256.033 87.6075L255.749 86.5551L254.661 86.4993L255.574 85.9047L255.291 84.8524L256.139 85.5372L257.052 84.9426Z" fill="#DDDDDD"/>
<path d="M232.052 103.943L231.663 104.961L232.51 105.645L231.422 105.59L231.033 106.607L230.749 105.555L229.661 105.499L230.574 104.905L230.291 103.852L231.139 104.537L232.052 103.943Z" fill="#DDDDDD"/>
<path d="M274.052 6.94263L273.663 7.96051L274.51 8.64538L273.422 8.5896L273.033 9.60748L272.749 8.55512L271.661 8.49934L272.574 7.90473L272.291 6.85238L273.139 7.53724L274.052 6.94263Z" fill="#DDDDDD"/>
<path d="M293.052 22.9426L292.663 23.9605L293.51 24.6454L292.422 24.5896L292.033 25.6075L291.749 24.5551L290.661 24.4993L291.574 23.9047L291.291 22.8524L292.139 23.5372L293.052 22.9426Z" fill="#DDDDDD"/>
<path d="M310.052 37.9426L309.663 38.9605L310.51 39.6454L309.422 39.5896L309.033 40.6075L308.749 39.5551L307.661 39.4993L308.574 38.9047L308.291 37.8524L309.139 38.5372L310.052 37.9426Z" fill="#DDDDDD"/>
<path d="M291.052 49.9426L290.663 50.9605L291.51 51.6454L290.422 51.5896L290.033 52.6075L289.749 51.5551L288.661 51.4993L289.574 50.9047L289.291 49.8524L290.139 50.5372L291.052 49.9426Z" fill="#DDDDDD"/>
<path d="M305.052 64.9426L304.663 65.9605L305.51 66.6454L304.422 66.5896L304.033 67.6075L303.749 66.5551L302.661 66.4993L303.574 65.9047L303.291 64.8524L304.139 65.5372L305.052 64.9426Z" fill="#DDDDDD"/>
<path d="M285.052 84.9426L284.663 85.9605L285.51 86.6454L284.422 86.5896L284.033 87.6075L283.749 86.5551L282.661 86.4993L283.574 85.9047L283.291 84.8524L284.139 85.5372L285.052 84.9426Z" fill="#DDDDDD"/>
<path d="M274.052 107.943L273.663 108.961L274.51 109.645L273.422 109.59L273.033 110.607L272.749 109.555L271.661 109.499L272.574 108.905L272.291 107.852L273.139 108.537L274.052 107.943Z" fill="#DDDDDD"/>
<path d="M314.052 9.94263L313.663 10.9605L314.51 11.6454L313.422 11.5896L313.033 12.6075L312.749 11.5551L311.661 11.4993L312.574 10.9047L312.291 9.85238L313.139 10.5372L314.052 9.94263Z" fill="#DDDDDD"/>
<path d="M333.052 16.9426L332.663 17.9605L333.51 18.6454L332.422 18.5896L332.033 19.6075L331.749 18.5551L330.661 18.4993L331.574 17.9047L331.291 16.8524L332.139 17.5372L333.052 16.9426Z" fill="#DDDDDD"/>
<path d="M351.052 32.9426L350.663 33.9605L351.51 34.6454L350.422 34.5896L350.033 35.6075L349.749 34.5551L348.661 34.4993L349.574 33.9047L349.291 32.8524L350.139 33.5372L351.052 32.9426Z" fill="#DDDDDD"/>
<path d="M329.052 45.9426L328.663 46.9605L329.51 47.6454L328.422 47.5896L328.033 48.6075L327.749 47.5551L326.661 47.4993L327.574 46.9047L327.291 45.8524L328.139 46.5372L329.052 45.9426Z" fill="#DDDDDD"/>
<path d="M340.052 71.9426L339.663 72.9605L340.51 73.6454L339.422 73.5896L339.033 74.6075L338.749 73.5551L337.661 73.4993L338.574 72.9047L338.291 71.8524L339.139 72.5372L340.052 71.9426Z" fill="#DDDDDD"/>
<path d="M351.052 92.9426L350.663 93.9605L351.51 94.6454L350.422 94.5896L350.033 95.6075L349.749 94.5551L348.661 94.4993L349.574 93.9047L349.291 92.8524L350.139 93.5372L351.052 92.9426Z" fill="#DDDDDD"/>
<path d="M312.052 88.9426L311.663 89.9605L312.51 90.6454L311.422 90.5896L311.033 91.6075L310.749 90.5551L309.661 90.4993L310.574 89.9047L310.291 88.8524L311.139 89.5372L312.052 88.9426Z" fill="#DDDDDD"/>
<path d="M327.052 107.943L326.663 108.961L327.51 109.645L326.422 109.59L326.033 110.607L325.749 109.555L324.661 109.499L325.574 108.905L325.291 107.852L326.139 108.537L327.052 107.943Z" fill="#DDDDDD"/>
<path d="M347.052 122.943L346.663 123.961L347.51 124.645L346.422 124.59L346.033 125.607L345.749 124.555L344.661 124.499L345.574 123.905L345.291 122.852L346.139 123.537L347.052 122.943Z" fill="#DDDDDD"/>
<path d="M289.052 130.943L288.663 131.961L289.51 132.645L288.422 132.59L288.033 133.607L287.749 132.555L286.661 132.499L287.574 131.905L287.291 130.852L288.139 131.537L289.052 130.943Z" fill="#DDDDDD"/>
<path d="M340.052 141.943L339.663 142.961L340.51 143.645L339.422 143.59L339.033 144.607L338.749 143.555L337.661 143.499L338.574 142.905L338.291 141.852L339.139 142.537L340.052 141.943Z" fill="#DDDDDD"/>
<path d="M211.052 141.943L210.663 142.961L211.51 143.645L210.422 143.59L210.033 144.607L209.749 143.555L208.661 143.499L209.574 142.905L209.291 141.852L210.139 142.537L211.052 141.943Z" fill="#DDDDDD"/>
<path d="M158.052 145.943L157.663 146.961L158.51 147.645L157.422 147.59L157.033 148.607L156.749 147.555L155.661 147.499L156.574 146.905L156.291 145.852L157.139 146.537L158.052 145.943Z" fill="#DDDDDD"/>
<path d="M95.0521 145.943L94.6627 146.961L95.5104 147.645L94.422 147.59L94.0327 148.607L93.7494 147.555L92.661 147.499L93.5743 146.905L93.291 145.852L94.1388 146.537L95.0521 145.943Z" fill="#DDDDDD"/>
<path d="M41.0521 147.943L40.6627 148.961L41.5104 149.645L40.422 149.59L40.0327 150.607L39.7494 149.555L38.661 149.499L39.5743 148.905L39.291 147.852L40.1388 148.537L41.0521 147.943Z" fill="#DDDDDD"/>
<path d="M209.052 114.943L208.663 115.961L209.51 116.645L208.422 116.59L208.033 117.607L207.749 116.555L206.661 116.499L207.574 115.905L207.291 114.852L208.139 115.537L209.052 114.943Z" fill="#DDDDDD"/>
<path d="M123.052 108.943L122.663 109.961L123.51 110.645L122.422 110.59L122.033 111.607L121.749 110.555L120.661 110.499L121.574 109.905L121.291 108.852L122.139 109.537L123.052 108.943Z" fill="#DDDDDD"/>
<path d="M37.0521 102.943L36.6627 103.961L37.5104 104.645L36.422 104.59L36.0327 105.607L35.7494 104.555L34.661 104.499L35.5743 103.905L35.291 102.852L36.1388 103.537L37.0521 102.943Z" fill="#DDDDDD"/>
<path d="M11.0521 110.943L10.6627 111.961L11.5104 112.645L10.422 112.59L10.0327 113.607L9.74937 112.555L8.66099 112.499L9.5743 111.905L9.29102 110.852L10.1388 111.537L11.0521 110.943Z" fill="#DDDDDD"/>
<path d="M68.0521 98.9426L67.6627 99.9605L68.5104 100.645L67.422 100.59L67.0327 101.607L66.7494 100.555L65.661 100.499L66.5743 99.9047L66.291 98.8524L67.1388 99.5372L68.0521 98.9426Z" fill="#DDDDDD"/>
<path d="M95.0521 98.9426L94.6627 99.9605L95.5104 100.645L94.422 100.59L94.0327 101.607L93.7494 100.555L92.661 100.499L93.5743 99.9047L93.291 98.8524L94.1388 99.5372L95.0521 98.9426Z" fill="#DDDDDD"/>
<path d="M82.0521 114.943L81.6627 115.961L82.5104 116.645L81.422 116.59L81.0327 117.607L80.7494 116.555L79.661 116.499L80.5743 115.905L80.291 114.852L81.1388 115.537L82.0521 114.943Z" fill="#DDDDDD"/>
<path d="M49.0521 122.943L48.6627 123.961L49.5104 124.645L48.422 124.59L48.0327 125.607L47.7494 124.555L46.661 124.499L47.5743 123.905L47.291 122.852L48.1388 123.537L49.0521 122.943Z" fill="#DDDDDD"/>
<path d="M147.052 104.943L146.663 105.961L147.51 106.645L146.422 106.59L146.033 107.607L145.749 106.555L144.661 106.499L145.574 105.905L145.291 104.852L146.139 105.537L147.052 104.943Z" fill="#DDDDDD"/>
<path d="M160.052 120.943L159.663 121.961L160.51 122.645L159.422 122.59L159.033 123.607L158.749 122.555L157.661 122.499L158.574 121.905L158.291 120.852L159.139 121.537L160.052 120.943Z" fill="#DDDDDD"/>
<path d="M111.052 126.943L110.663 127.961L111.51 128.645L110.422 128.59L110.033 129.607L109.749 128.555L108.661 128.499L109.574 127.905L109.291 126.852L110.139 127.537L111.052 126.943Z" fill="#DDDDDD"/>
<path d="M192.052 135.943L191.663 136.961L192.51 137.645L191.422 137.59L191.033 138.607L190.749 137.555L189.661 137.499L190.574 136.905L190.291 135.852L191.139 136.537L192.052 135.943Z" fill="#DDDDDD"/>
<path d="M228.052 126.943L227.663 127.961L228.51 128.645L227.422 128.59L227.033 129.607L226.749 128.555L225.661 128.499L226.574 127.905L226.291 126.852L227.139 127.537L228.052 126.943Z" fill="#DDDDDD"/>
<path d="M248.052 120.943L247.663 121.961L248.51 122.645L247.422 122.59L247.033 123.607L246.749 122.555L245.661 122.499L246.574 121.905L246.291 120.852L247.139 121.537L248.052 120.943Z" fill="#DDDDDD"/>
<path d="M138.052 133.943L137.663 134.961L138.51 135.645L137.422 135.59L137.033 136.607L136.749 135.555L135.661 135.499L136.574 134.905L136.291 133.852L137.139 134.537L138.052 133.943Z" fill="#DDDDDD"/>
<path d="M19.0521 133.943L18.6627 134.961L19.5104 135.645L18.422 135.59L18.0327 136.607L17.7494 135.555L16.661 135.499L17.5743 134.905L17.291 133.852L18.1388 134.537L19.0521 133.943Z" fill="#DDDDDD"/>
<path d="M74.0521 137.943L73.6627 138.961L74.5104 139.645L73.422 139.59L73.0327 140.607L72.7494 139.555L71.661 139.499L72.5743 138.905L72.291 137.852L73.1388 138.537L74.0521 137.943Z" fill="#DDDDDD"/>
<path d="M301.052 114.943L300.663 115.961L301.51 116.645L300.422 116.59L300.033 117.607L299.749 116.555L298.661 116.499L299.574 115.905L299.291 114.852L300.139 115.537L301.052 114.943Z" fill="#DDDDDD"/>
<path d="M261.052 135.943L260.663 136.961L261.51 137.645L260.422 137.59L260.033 138.607L259.749 137.555L258.661 137.499L259.574 136.905L259.291 135.852L260.139 136.537L261.052 135.943Z" fill="#DDDDDD"/>
<path d="M316.052 137.943L315.663 138.961L316.51 139.645L315.422 139.59L315.033 140.607L314.749 139.555L313.661 139.499L314.574 138.905L314.291 137.852L315.139 138.537L316.052 137.943Z" fill="#DDDDDD"/>
<path d="M186.052 105.943L185.663 106.961L186.51 107.645L185.422 107.59L185.033 108.607L184.749 107.555L183.661 107.499L184.574 106.905L184.291 105.852L185.139 106.537L186.052 105.943Z" fill="#DDDDDD"/>
<path d="M143.052 43.9426L142.663 44.9605L143.51 45.6454L142.422 45.5896L142.033 46.6075L141.749 45.5551L140.661 45.4993L141.574 44.9047L141.291 43.8524L142.139 44.5372L143.052 43.9426Z" fill="#DDDDDD"/>
<path d="M109.11 39.4949L108.105 39.9159L108.194 41.002L107.483 40.1761L106.478 40.5971L107.044 39.6656L106.333 38.8397L107.394 39.09L107.959 38.1585L108.049 39.2446L109.11 39.4949Z" fill="#DDDDDD"/>
<path d="M138.06 24.1714L137.461 25.0818L138.142 25.9328L137.091 25.6444L136.492 26.5549L136.442 25.4662L135.391 25.1778L136.41 24.7934L136.36 23.7048L137.041 24.5558L138.06 24.1714Z" fill="#DDDDDD"/>
<path d="M3.42891 30.7605L4.06503 31.6454L5.10319 31.3139L4.45817 32.1923L5.09429 33.0772L4.05953 32.7352L3.41451 33.6137L3.42001 32.5239L2.38525 32.1819L3.42341 31.8503L3.42891 30.7605Z" fill="#DDDDDD"/>
<path d="M33.9077 26.0719L33.4026 27.0376L34.165 27.8164L33.0905 27.6344L32.5854 28.6002L32.4264 27.522L31.3519 27.3401L32.3281 26.8557L32.1691 25.7775L32.9315 26.5563L33.9077 26.0719Z" fill="#DDDDDD"/>
<path d="M170.345 19.1084L171.106 19.8882L172.083 19.405L171.576 20.37L172.338 21.1498L171.264 20.9665L170.757 21.9316L170.6 20.8532L169.525 20.67L170.502 20.1868L170.345 19.1084Z" fill="#DDDDDD"/>
<path d="M1.47582 2.62586L1.99251 3.58541L3.06476 3.39053L2.31183 4.17844L2.82852 5.13799L1.8465 4.6654L1.09358 5.45331L1.23959 4.37332L0.257573 3.90073L1.32982 3.70585L1.47582 2.62586Z" fill="#DDDDDD"/>
<defs>
<linearGradient id="paint0_linear" x1="181.5" y1="0" x2="181.5" y2="263" gradientUnits="userSpaceOnUse">
<stop stop-color="#00B2D9"/>
<stop offset="1" stop-color="#00FFE0"/>
</linearGradient>
</defs>
</svg>
